<svg xmlns="http://www.w3.org/2000/svg" width="303.068" height="150.651" viewBox="0 0 303.068 150.651"><g transform="translate(1711.919 -181.64)"><path d="M-1146.3,259.608c-2.983-1.888-6.085-3.571-9.138-5.338q-19.6-11.337-39.193-22.674a24.182,24.182,0,0,1-4.711-38.512,24.131,24.131,0,0,1,29.025-3.278q16.33,9.476,32.685,18.91,23.043,13.314,46.093,26.617c2,1.153,4.029,2.25,5.991,3.461a23.7,23.7,0,0,1,11.636,17.631,24.236,24.236,0,0,1-14.032,25.255,1.647,1.647,0,0,0-.264.2,21.692,21.692,0,0,1-10.11,2.091,23.707,23.707,0,0,1-9.743-2.291c-4.6-2.214-8.9-4.974-13.329-7.5-8.02-4.569-15.973-9.255-23.986-13.837A2.146,2.146,0,0,1-1146.3,259.608Z" transform="translate(-335.168 -3.163)" fill="#0f9c58"/><path d="M-1643.873,360.138a2.6,2.6,0,0,0,.9.629q17.539,10.143,35.083,20.276c5.551,3.209,11.073,6.467,16.652,9.627a23.171,23.171,0,0,1,11.738,15.273c2.3,9.827-.584,18.16-8.3,24.669a23.815,23.815,0,0,1-26.546,2.434c-11.364-6.473-22.671-13.046-34-19.586q-20.507-11.84-41.006-23.7c-3.5-2.024-7.032-4-10.508-6.075a23.506,23.506,0,0,1-11.848-17.777,23.993,23.993,0,0,1,13.157-24.761c.151-.078.3-.159.452-.238a3.731,3.731,0,0,1,1.933-1.021,24.173,24.173,0,0,1,19.022,1c3.512,1.711,6.782,3.862,10.178,5.787,7.511,4.259,14.924,8.689,22.457,12.911C-1644.254,359.733-1643.969,359.827-1643.873,360.138Z" transform="translate(0 -104.038)" fill="#4284f3"/><path d="M-1617.867,253.745c-3.327-1.635-6.45-3.631-9.662-5.468-7.542-4.312-15-8.779-22.6-12.99-6.848-3.8-14-4.02-21.244-1.049-.237.1-.476.189-.714.284-.507-.306-1.164-.277-1.661-.75q4.845-2.787,9.64-5.545,26.506-15.277,53.011-30.555c7.6-4.381,15.167-8.824,22.817-13.118a23.935,23.935,0,0,1,26.88,2.744,23.367,23.367,0,0,1,8.6,19.883,22.971,22.971,0,0,1-11.529,19.215c-8.752,5.283-17.692,10.254-26.552,15.359q-11.216,6.464-22.428,12.936a1.519,1.519,0,0,1-1.5.119C-1615.8,254.4-1616.844,254.094-1617.867,253.745Z" transform="translate(-25.333)" fill="#e94335"/><path d="M-1148.417,412.013c1.786,1,3.584,1.982,5.357,3.006q15.2,8.777,30.4,17.565a25.137,25.137,0,0,0,13.106,3.558,25.351,25.351,0,0,0,8.421-1.657c.261-.1.5-.287.811-.2-1.712,1.182-3.558,2.139-5.354,3.177q-20.047,11.592-40.112,23.153-16.99,9.8-33.989,19.575a36.784,36.784,0,0,1-6.659,3.456c-9.136,3.018-17.522,1.631-24.68-4.881a23.979,23.979,0,0,1-2.534-32.933,27.921,27.921,0,0,1,8.317-6.739q11.227-6.445,22.436-12.922,12.066-6.957,24.128-13.923C-1148.651,412.175-1148.536,412.091-1148.417,412.013Z" transform="translate(-333.722 -152.876)" fill="#fabb04"/></g></svg>