<svg xmlns="http://www.w3.org/2000/svg" width="103.859" height="51.626" viewBox="0 0 103.859 51.626"><g transform="translate(1711.919 -181.64)"><path d="M-1186.1,211.492c-1.022-.647-2.085-1.224-3.132-1.829q-6.716-3.885-13.431-7.77a8.287,8.287,0,0,1-1.614-13.2,8.269,8.269,0,0,1,9.947-1.123q5.6,3.247,11.2,6.48,7.9,4.563,15.8,9.121c.685.4,1.381.771,2.053,1.186a8.121,8.121,0,0,1,3.988,6.042,8.305,8.305,0,0,1-4.809,8.655.563.563,0,0,0-.091.067,7.434,7.434,0,0,1-3.465.717,8.124,8.124,0,0,1-3.339-.785c-1.578-.759-3.05-1.7-4.568-2.569-2.749-1.566-5.474-3.172-8.22-4.742A.735.735,0,0,1-1186.1,211.492Z" transform="translate(-446.849 -4.216)" fill="#fff"/><path d="M-1688.6,345.861a.889.889,0,0,0,.31.216q6.01,3.476,12.023,6.948c1.9,1.1,3.795,2.216,5.706,3.3a7.941,7.941,0,0,1,4.022,5.234,8.017,8.017,0,0,1-2.843,8.454,8.161,8.161,0,0,1-9.1.834c-3.894-2.218-7.769-4.471-11.651-6.712q-7.028-4.058-14.052-8.12c-1.2-.694-2.41-1.372-3.6-2.082a8.056,8.056,0,0,1-4.06-6.092,8.223,8.223,0,0,1,4.509-8.485l.155-.082a1.279,1.279,0,0,1,.663-.35,8.284,8.284,0,0,1,6.519.344c1.2.586,2.324,1.324,3.488,1.983,2.574,1.459,5.115,2.978,7.7,4.424C-1688.731,345.722-1688.633,345.754-1688.6,345.861Z" transform="translate(0 -138.705)" fill="#fff"/><path d="M-1654.6,206.349c-1.14-.56-2.21-1.244-3.311-1.874-2.585-1.478-5.14-3.009-7.743-4.452a8.06,8.06,0,0,0-7.28-.359c-.081.033-.163.065-.245.1-.174-.1-.4-.095-.569-.257q1.66-.955,3.3-1.9l18.167-10.471c2.6-1.5,5.2-3.024,7.819-4.5a8.2,8.2,0,0,1,9.212.94,8.008,8.008,0,0,1,2.946,6.814,7.872,7.872,0,0,1-3.951,6.585c-3,1.81-6.063,3.514-9.1,5.263q-3.844,2.215-7.686,4.433a.521.521,0,0,1-.514.041C-1653.888,206.574-1654.245,206.469-1654.6,206.349Z" transform="translate(-33.774 0)" fill="#fff"/><path d="M-1188.255,412.013c.612.343,1.228.679,1.836,1.03q5.21,3.008,10.417,6.019a8.613,8.613,0,0,0,4.491,1.219,8.686,8.686,0,0,0,2.886-.568c.09-.033.173-.1.278-.069-.586.4-1.219.733-1.835,1.089q-6.87,3.973-13.746,7.934-5.823,3.357-11.648,6.708a12.6,12.6,0,0,1-2.282,1.185,8.054,8.054,0,0,1-8.458-1.673,8.218,8.218,0,0,1-.869-11.286,9.568,9.568,0,0,1,2.85-2.31q3.847-2.209,7.689-4.428,4.135-2.384,8.269-4.771C-1188.335,412.069-1188.3,412.04-1188.255,412.013Z" transform="translate(-444.921 -203.816)" fill="#fff"/></g></svg>