<svg xmlns="http://www.w3.org/2000/svg" width="164.791" height="164.792" viewBox="0 0 164.791 164.792"><g transform="translate(56.747 56.462)"><path d="M147.565,148.6a2.555,2.555,0,0,1-1.812-.751L99.363,101.46a2.562,2.562,0,0,1,3.624-3.624l46.39,46.389a2.563,2.563,0,0,1-1.812,4.375Z" transform="translate(-98.612 -97.085)" fill="#212a41"/></g><g transform="translate(51.525 49.941)"><path d="M114.631,152.24,93.305,130.914a2.877,2.877,0,0,1,0-4.068l36.524-36.524a2.876,2.876,0,0,1,4.068,0l21.326,21.326a2.877,2.877,0,0,1,0,4.068L118.7,152.24A2.877,2.877,0,0,1,114.631,152.24Z" transform="translate(-92.463 -89.48)" fill="#d4e7f8"/></g><g transform="translate(68.423 66.851)"><path d="M158.055,114.48l-5.57-5.57a2.877,2.877,0,0,1,0,4.068L115.961,149.5a2.876,2.876,0,0,1-4.068,0l5.57,5.57a2.877,2.877,0,0,0,4.068,0l36.524-36.524A2.877,2.877,0,0,0,158.055,114.48Z" transform="translate(-111.893 -108.91)" fill="#a0d1f2"/></g><g transform="translate(68.159 67.877)"><rect width="16.974" height="24.103" transform="translate(17.044 0) rotate(45)" fill="#7babf3"/></g><g transform="translate(32.788 96.927)"><rect width="35.913" height="14.101" transform="translate(9.971 0) rotate(45)" fill="#d32e5e"/></g><g transform="translate(97.258 21.392)"><path d="M190.591,96.344a27.194,27.194,0,0,1-38.459-38.459Z" transform="translate(-144.167 -57.885)" fill="#d32e5e"/></g><g transform="translate(102.264 54.336)"><path d="M184.909,95.258A27.2,27.2,0,0,1,150,98.242a27.175,27.175,0,0,0,41.443,3.548Z" transform="translate(-149.998 -95.258)" fill="#b51040"/></g><g transform="translate(127.719 24.476)"><circle cx="6.147" cy="6.147" r="6.147" fill="#d32e5e"/></g><g transform="translate(53.03 116.915)"><rect width="14.101" height="7.877" transform="translate(0 9.971) rotate(-45)" fill="#b51040"/></g><g transform="translate(47.266 94.251)"><rect width="24.114" height="9.217" transform="translate(6.517 0) rotate(45)" fill="#7babf3"/></g><g transform="translate(2.564 2.565)"><rect width="37.868" height="78.007" transform="translate(26.777 81.935) rotate(-135)" fill="#a0d1f2"/></g><g transform="translate(80.293 80.296)"><rect width="37.868" height="78.007" transform="translate(26.777 81.935) rotate(-135)" fill="#a0d1f2"/></g><g transform="translate(100.859 100.863)"><rect width="8.783" height="78.007" transform="translate(6.21 61.369) rotate(-135)" fill="#7babf3"/></g><g transform="translate(23.948 23.922)"><rect width="8.783" height="78.007" transform="translate(6.21 61.369) rotate(-135)" fill="#7babf3"/></g><g transform="translate(93.539 20.013)"><path d="M170.927,106.435a29.757,29.757,0,0,1-21.042-50.8,2.562,2.562,0,0,1,3.624,0l38.459,38.459a2.562,2.562,0,0,1,0,3.624A29.562,29.562,0,0,1,170.927,106.435ZM151.791,61.166A24.634,24.634,0,0,0,186.44,95.813Z" transform="translate(-141.184 -54.885)" fill="#212a41"/></g><g transform="translate(30.184 94.435)"><path d="M96.724,180.726a2.554,2.554,0,0,1-1.812-.751L69.518,154.581a2.562,2.562,0,0,1,0-3.624l9.97-9.97a2.636,2.636,0,0,1,3.624,0l25.4,25.4a2.563,2.563,0,0,1,0,3.625l-9.971,9.97A2.559,2.559,0,0,1,96.724,180.726Zm-21.77-27.958,21.77,21.77,6.346-6.346L81.3,146.422Z" transform="translate(-68.767 -140.266)" fill="#212a41"/></g><g transform="translate(44.676 91.744)"><path d="M104.935,166.183a2.56,2.56,0,0,1-1.812-.751l-17.05-17.051a2.562,2.562,0,0,1,0-3.624l6.517-6.517a2.636,2.636,0,0,1,3.624,0l17.05,17.051a2.562,2.562,0,0,1,0,3.624l-6.517,6.517A2.562,2.562,0,0,1,104.935,166.183ZM91.509,146.57,104.935,160l2.893-2.893L94.4,143.677Z" transform="translate(-85.322 -137.519)" fill="#212a41"/></g><g transform="translate(48.963 47.375)"><path d="M116.229,155.209a5.4,5.4,0,0,1-3.847-1.593L91.056,132.289a5.44,5.44,0,0,1,0-7.693l36.523-36.523a5.44,5.44,0,0,1,7.693,0L156.6,109.4a5.44,5.44,0,0,1,0,7.693l-36.523,36.523A5.4,5.4,0,0,1,116.229,155.209Zm15.2-63.6a.306.306,0,0,0-.222.091L94.68,128.221a.306.306,0,0,0-.091.222.3.3,0,0,0,.091.221l21.326,21.327a.318.318,0,0,0,.445,0l36.523-36.523a.316.316,0,0,0,0-.444L131.648,91.7a.306.306,0,0,0-.222-.091Z" transform="translate(-89.463 -86.48)" fill="#212a41"/></g><path d="M64.177,120.665a2.554,2.554,0,0,1-1.812-.751L35.588,93.137a2.561,2.561,0,0,1,0-3.624L90.747,34.354a2.561,2.561,0,0,1,3.624,0l26.777,26.777a2.562,2.562,0,0,1,0,3.624L65.989,119.914A2.555,2.555,0,0,1,64.177,120.665ZM41.024,91.325l23.153,23.153,51.535-51.535L92.559,39.79Z" transform="translate(-34.837 -33.603)" fill="#212a41"/><g transform="translate(13.388 13.389)"><path d="M53.072,109.561a2.563,2.563,0,0,1-1.812-4.375l55.159-55.159a2.562,2.562,0,1,1,3.624,3.624L54.884,108.81A2.555,2.555,0,0,1,53.072,109.561Z" transform="translate(-50.509 -49.276)" fill="#212a41"/></g><g transform="translate(28.789 28.508)"><path d="M96.607,97.643a2.554,2.554,0,0,1-1.812-.751L68.018,70.115a2.562,2.562,0,0,1,3.624-3.624L98.419,93.268a2.563,2.563,0,0,1-1.812,4.375Z" transform="translate(-67.267 -65.74)" fill="#212a41"/></g><g transform="translate(43.328 13.371)"><path d="M113.093,81.158a2.554,2.554,0,0,1-1.812-.751L84.5,53.63a2.562,2.562,0,0,1,3.624-3.624l26.777,26.777a2.563,2.563,0,0,1-1.812,4.375Z" transform="translate(-83.753 -49.255)" fill="#212a41"/></g><g transform="translate(13.371 43.306)"><path d="M79.829,114.422a2.554,2.554,0,0,1-1.812-.751L51.24,86.894a2.562,2.562,0,0,1,3.624-3.624l26.777,26.777a2.563,2.563,0,0,1-1.812,4.375Z" transform="translate(-50.489 -82.519)" fill="#212a41"/></g><g transform="translate(77.73 77.76)"><path d="M149.823,206.317a2.559,2.559,0,0,1-1.812-.751l-26.776-26.777a2.562,2.562,0,0,1,0-3.624l55.158-55.159a2.636,2.636,0,0,1,3.624,0l26.777,26.777a2.561,2.561,0,0,1,0,3.624l-55.159,55.159A2.56,2.56,0,0,1,149.823,206.317Zm-23.152-29.34,23.152,23.153,51.535-51.535-23.153-23.153Z" transform="translate(-120.484 -119.285)" fill="#212a41"/></g><g transform="translate(91.119 91.119)"><path d="M138.719,195.208a2.563,2.563,0,0,1-1.812-4.375l55.159-55.159a2.562,2.562,0,1,1,3.624,3.624l-55.159,55.159A2.554,2.554,0,0,1,138.719,195.208Z" transform="translate(-136.156 -134.923)" fill="#212a41"/></g><g transform="translate(104.323 104.042)"><path d="M182.255,183.29a2.554,2.554,0,0,1-1.812-.751l-26.777-26.777a2.562,2.562,0,0,1,3.624-3.624l26.777,26.777a2.563,2.563,0,0,1-1.812,4.375Z" transform="translate(-152.915 -151.387)" fill="#212a41"/></g><g transform="translate(119.517 89.504)"><path d="M198.739,166.8a2.554,2.554,0,0,1-1.812-.751L170.15,139.277a2.562,2.562,0,0,1,3.624-3.624l26.777,26.777a2.563,2.563,0,0,1-1.812,4.375Z" transform="translate(-169.399 -134.902)" fill="#212a41"/></g><g transform="translate(89.525 119.518)"><path d="M165.475,200.069a2.554,2.554,0,0,1-1.812-.751l-26.777-26.777a2.562,2.562,0,0,1,3.624-3.624l26.777,26.777a2.563,2.563,0,0,1-1.812,4.375Z" transform="translate(-136.135 -168.166)" fill="#212a41"/></g><g transform="translate(125.437 21.884)"><path d="M185.736,76a8.711,8.711,0,1,1,6.158-2.551A8.653,8.653,0,0,1,185.736,76Zm0-12.3a3.585,3.585,0,1,0,2.535,1.05A3.565,3.565,0,0,0,185.736,63.708Z" transform="translate(-177.026 -58.583)" fill="#212a41"/></g><g transform="translate(121.336 32.873)"><path d="M175.366,81.4a2.563,2.563,0,0,1-1.812-4.376l5.408-5.408a2.563,2.563,0,0,1,3.624,3.626l-5.408,5.408A2.558,2.558,0,0,1,175.366,81.4Z" transform="translate(-172.803 -70.867)" fill="#212a41"/></g><g transform="translate(65.596 65.315)"><path d="M123.526,141.606h0a2.56,2.56,0,0,1-1.812-.751l-12-12a2.562,2.562,0,0,1,0-3.624l17.043-17.044a2.562,2.562,0,0,1,3.624,0l12,12a2.563,2.563,0,0,1,0,3.625l-17.044,17.044A2.561,2.561,0,0,1,123.526,141.606Zm-8.379-14.566,8.379,8.379L136.946,122l-8.38-8.379Z" transform="translate(-108.961 -107.433)" fill="#212941"/></g><g transform="translate(74.002 73.725)"><path d="M125.047,126.082a2.554,2.554,0,0,1-1.812-.751l-3.547-3.547a2.562,2.562,0,0,1,3.624-3.624l3.547,3.547a2.563,2.563,0,0,1-1.812,4.375Z" transform="translate(-118.937 -117.409)" fill="#212a41"/></g></svg>