<svg xmlns="http://www.w3.org/2000/svg" width="257.801" height="360.94" viewBox="0 0 257.801 360.94">
  <g id="Space_Shuttle_Launch" transform="translate(-60.538 -0.396)">
    <g id="Group_621" data-name="Group 621" transform="translate(129.283 0.396)">
      <path id="Path_514" data-name="Path 514" d="M105.953,333.171H25.75V70.334A85.937,85.937,0,0,1,53.878,6.75l2.337-2.125a14.318,14.318,0,0,1,19.266,0L77.819,6.75a85.937,85.937,0,0,1,28.128,63.584V333.171Z" transform="translate(-22.886 1.989)" fill="#f9ac2f"/>
      <path id="Path_515" data-name="Path 515" d="M108.317,338.42h-80.2a2.865,2.865,0,0,1-2.864-2.864V72.719a88.985,88.985,0,0,1,29.068-65.7L56.655,4.89a17.116,17.116,0,0,1,23.121,0l2.332,2.125a88.969,88.969,0,0,1,29.074,65.7V335.555A2.865,2.865,0,0,1,108.317,338.42Zm-77.339-5.729h74.474V72.719A83.239,83.239,0,0,0,78.264,11.254L75.927,9.129a11.4,11.4,0,0,0-15.41,0L58.173,11.26A83.2,83.2,0,0,0,30.979,72.719Z" transform="translate(-25.25 -0.396)" fill="#212a41"/>
    </g>
    <g id="Group_622" data-name="Group 622" transform="translate(129.283 0.396)">
      <path id="Path_516" data-name="Path 516" d="M108.317,76.734h-80.2A2.865,2.865,0,0,1,25.25,73.87V72.719a88.985,88.985,0,0,1,29.068-65.7L56.655,4.89a17.109,17.109,0,0,1,23.116,0l2.337,2.125h0a88.969,88.969,0,0,1,29.074,65.7V73.87A2.862,2.862,0,0,1,108.317,76.734ZM31,71.006h74.44A83.265,83.265,0,0,0,78.264,11.254L75.927,9.129a11.411,11.411,0,0,0-15.416,0l-2.337,2.125A83.249,83.249,0,0,0,31,71.006Z" transform="translate(-25.25 -0.396)" fill="#212a41"/>
    </g>
    <g id="Group_623" data-name="Group 623" transform="translate(141.464 12.624)">
      <path id="Path_517" data-name="Path 517" d="M30.245,55.183a2.361,2.361,0,0,1-.4-.029,2.866,2.866,0,0,1-2.44-3.231A77.552,77.552,0,0,1,51.969,5.4l2.343-2.131a2.867,2.867,0,0,1,3.85,4.251L55.819,9.645A71.837,71.837,0,0,0,33.075,52.72,2.86,2.86,0,0,1,30.245,55.183Z" transform="translate(-27.376 -2.53)" fill="#ffca4d"/>
    </g>
    <g id="Group_624" data-name="Group 624" transform="translate(209.486 91.601)">
      <path id="Path_518" data-name="Path 518" d="M47.914,23.743l1.656-2.756a8.591,8.591,0,0,1,14.734,0l1.656,2.756a57.32,57.32,0,0,1,8.164,29.475V275.094a5.731,5.731,0,0,1-5.729,5.729H45.479a5.731,5.731,0,0,1-5.729-5.729V53.218A57.3,57.3,0,0,1,47.914,23.743Z" transform="translate(-36.886 -13.953)" fill="#b7c0d7"/>
      <path id="Path_519" data-name="Path 519" d="M70.758,286.05H47.843a8.6,8.6,0,0,1-8.593-8.593V55.581a60.2,60.2,0,0,1,8.57-30.947h0l1.656-2.756a11.455,11.455,0,0,1,19.65.006l1.656,2.75a60.14,60.14,0,0,1,8.57,30.947V277.457A8.6,8.6,0,0,1,70.758,286.05ZM52.736,27.579a54.414,54.414,0,0,0-7.757,28V277.457a2.869,2.869,0,0,0,2.864,2.864H70.758a2.869,2.869,0,0,0,2.864-2.864V55.581a54.414,54.414,0,0,0-7.757-28l-1.656-2.75a5.925,5.925,0,0,0-9.825-.006Z" transform="translate(-39.25 -16.316)" fill="#212a41"/>
    </g>
    <g id="Group_625" data-name="Group 625" transform="translate(209.486 127.996)">
      <path id="Path_520" data-name="Path 520" d="M76.487,62.771H42.114a2.865,2.865,0,0,1-2.864-2.864V25.533a2.865,2.865,0,0,1,2.864-2.864H76.487a2.865,2.865,0,0,1,2.864,2.864V59.906A2.862,2.862,0,0,1,76.487,62.771ZM44.979,57.042H73.623V28.4H44.979Z" transform="translate(-39.25 -22.669)" fill="#212a41"/>
    </g>
    <g id="Group_626" data-name="Group 626" transform="translate(226.673 238.167)">
      <path id="Path_521" data-name="Path 521" d="M128.682,102.552,42.75,42.4v94.525h85.932Z" transform="translate(-39.886 -39.537)" fill="#b7c0d7"/>
      <path id="Path_522" data-name="Path 522" d="M131.046,142.153H45.114a2.865,2.865,0,0,1-2.864-2.864V44.763a2.87,2.87,0,0,1,4.514-2.343L132.7,102.573a2.882,2.882,0,0,1,1.22,2.349v34.373A2.873,2.873,0,0,1,131.046,142.153Zm-83.067-5.729h80.2V106.405l-80.2-56.142Z" transform="translate(-42.25 -41.9)" fill="#212a41"/>
    </g>
    <g id="Group_627" data-name="Group 627" transform="translate(146.47 58.861)">
      <path id="Path_523" data-name="Path 523" d="M84.813,19.021l-.137-.178a20.045,20.045,0,0,0-31.652,0l-.137.178A114.56,114.56,0,0,0,28.751,89.364V284.934h80.2V89.364A114.6,114.6,0,0,0,84.813,19.021Z" transform="translate(-25.881 -8.239)" fill="#b7c0d7"/>
      <path id="Path_524" data-name="Path 524" d="M111.317,290.16h-80.2A2.865,2.865,0,0,1,28.25,287.3V91.726a118,118,0,0,1,24.737-72.1A22.919,22.919,0,0,1,89.3,19.446l.137.178a118,118,0,0,1,24.737,72.1V287.3A2.857,2.857,0,0,1,111.317,290.16Zm-77.339-5.729h74.474V91.726A112.257,112.257,0,0,0,84.925,23.147l-.132-.178a17.189,17.189,0,0,0-27.137-.006A112.406,112.406,0,0,0,33.985,91.726V284.431Z" transform="translate(-28.25 -10.601)" fill="#212a41"/>
    </g>
    <g id="Group_628" data-name="Group 628" transform="translate(112.097 91.601)">
      <path id="Path_525" data-name="Path 525" d="M30.914,23.743l1.656-2.756a8.591,8.591,0,0,1,14.734,0l1.656,2.756a57.32,57.32,0,0,1,8.164,29.475V275.094a5.731,5.731,0,0,1-5.729,5.729H28.479a5.731,5.731,0,0,1-5.729-5.729V53.218A57.3,57.3,0,0,1,30.914,23.743Z" transform="translate(-19.886 -13.953)" fill="#99a2b9"/>
      <path id="Path_526" data-name="Path 526" d="M53.758,286.05H30.843a8.6,8.6,0,0,1-8.593-8.593V55.581a60.2,60.2,0,0,1,8.57-30.947h0l1.656-2.756a11.455,11.455,0,0,1,19.65.006l1.656,2.75a60.141,60.141,0,0,1,8.57,30.947V277.457A8.6,8.6,0,0,1,53.758,286.05ZM35.736,27.579a54.414,54.414,0,0,0-7.757,28V277.457a2.869,2.869,0,0,0,2.864,2.864H53.758a2.869,2.869,0,0,0,2.864-2.864V55.581a54.414,54.414,0,0,0-7.757-28l-1.656-2.75a5.925,5.925,0,0,0-9.825-.006Z" transform="translate(-22.25 -16.316)" fill="#212a41"/>
    </g>
    <g id="Group_629" data-name="Group 629" transform="translate(123.555 105.812)">
      <path id="Path_527" data-name="Path 527" d="M27.114,262.862A2.865,2.865,0,0,1,24.25,260V43.851a48.811,48.811,0,0,1,6.084-23.574,2.866,2.866,0,0,1,5.013,2.778,43.083,43.083,0,0,0-5.368,20.8V260A2.865,2.865,0,0,1,27.114,262.862Z" transform="translate(-24.25 -18.797)" fill="#d5def5"/>
    </g>
    <g id="Group_630" data-name="Group 630" transform="translate(226.673 309.776)">
      <rect id="Rectangle_202" data-name="Rectangle 202" width="85.932" height="22.915" transform="translate(2.864 2.864)" fill="#d32e5e"/>
      <path id="Path_528" data-name="Path 528" d="M131.046,83.044H45.114A2.865,2.865,0,0,1,42.25,80.18V57.264A2.865,2.865,0,0,1,45.114,54.4h85.932a2.865,2.865,0,0,1,2.864,2.864V80.18A2.865,2.865,0,0,1,131.046,83.044ZM47.979,77.315h80.2V60.129h-80.2Z" transform="translate(-42.25 -54.4)" fill="#212a41"/>
    </g>
    <g id="Group_631" data-name="Group 631" transform="translate(158.151 61.722)">
      <path id="Path_529" data-name="Path 529" d="M45.745,18.843l-.137.178A114.147,114.147,0,0,0,30.289,45.476h62.57A114.8,114.8,0,0,0,77.54,19.021l-.137-.178A20.051,20.051,0,0,0,45.745,18.843Z" transform="translate(-30.289 -11.1)" fill="#d32e5e"/>
    </g>
    <g id="Group_632" data-name="Group 632" transform="translate(215.215 283.996)">
      <path id="Path_530" data-name="Path 530" d="M57.936,50.4H40.75V99.095H86.58Z" transform="translate(-37.886 -47.536)" fill="#b7c0d7"/>
      <path id="Path_531" data-name="Path 531" d="M88.945,104.323H43.114a2.865,2.865,0,0,1-2.864-2.864V52.764A2.865,2.865,0,0,1,43.114,49.9H60.3a2.866,2.866,0,0,1,2.469,1.415L91.414,100.01a2.864,2.864,0,0,1-2.469,4.314ZM45.979,98.595H83.938L58.662,55.629H45.979Z" transform="translate(-40.25 -49.9)" fill="#212a41"/>
    </g>
    <g id="Group_633" data-name="Group 633" transform="translate(198.029 283.996)">
      <path id="Path_532" data-name="Path 532" d="M54.936,50.4H37.75V99.095H83.58Z" transform="translate(-34.886 -47.536)" fill="#99a2b9"/>
      <path id="Path_533" data-name="Path 533" d="M85.945,104.323H40.114a2.865,2.865,0,0,1-2.864-2.864V52.764A2.865,2.865,0,0,1,40.114,49.9H57.3a2.866,2.866,0,0,1,2.469,1.415L88.414,100.01a2.864,2.864,0,0,1-2.469,4.314ZM42.979,98.595H80.938L55.662,55.629H42.979Z" transform="translate(-37.25 -49.9)" fill="#212a41"/>
    </g>
    <g id="Group_634" data-name="Group 634" transform="translate(112.097 128.288)">
      <path id="Path_534" data-name="Path 534" d="M59.487,62.822H25.114a2.865,2.865,0,0,1-2.864-2.864V25.584a2.865,2.865,0,0,1,2.864-2.864H59.487a2.865,2.865,0,0,1,2.864,2.864V59.957A2.862,2.862,0,0,1,59.487,62.822ZM27.979,57.093H56.623V28.449H27.979Z" transform="translate(-22.25 -22.72)" fill="#212a41"/>
    </g>
    <g id="Group_635" data-name="Group 635" transform="translate(186.571 113.674)">
      <path id="Path_535" data-name="Path 535" d="M73.331,20.67H35.75V34.992H75.473A115.267,115.267,0,0,0,73.331,20.67Z" transform="translate(-32.886 -17.8)" fill="#0079a8"/>
      <path id="Path_536" data-name="Path 536" d="M77.838,40.22H38.114a2.865,2.865,0,0,1-2.864-2.864V23.033a2.865,2.865,0,0,1,2.864-2.864H75.7a2.863,2.863,0,0,1,2.8,2.28,117.585,117.585,0,0,1,2.194,14.677,2.834,2.834,0,0,1-.75,2.171A2.88,2.88,0,0,1,77.838,40.22ZM40.979,34.491h33.7c-.315-2.721-.75-5.563-1.335-8.593H40.979Z" transform="translate(-35.25 -20.169)" fill="#212a41"/>
    </g>
    <g id="Group_640" data-name="Group 640" transform="translate(157.927 73.632)">
      <path id="Path_545" data-name="Path 545" d="M33.114,171.985a2.865,2.865,0,0,1-2.864-2.864V79.533A106.814,106.814,0,0,1,52.718,14.288a2.865,2.865,0,0,1,4.52,3.523,101.053,101.053,0,0,0-21.26,61.728V169.12A2.865,2.865,0,0,1,33.114,171.985Z" transform="translate(-30.25 -13.179)" fill="#d5def5"/>
    </g>
    <g id="Group_641" data-name="Group 641" transform="translate(167.775 73.632)">
      <path id="Path_546" data-name="Path 546" d="M34.833,38.51a2.9,2.9,0,0,1-1.22-.269,2.861,2.861,0,0,1-1.369-3.81A107.049,107.049,0,0,1,44.59,14.288a2.865,2.865,0,0,1,4.52,3.523A101.074,101.074,0,0,0,37.423,36.865,2.861,2.861,0,0,1,34.833,38.51Z" transform="translate(-31.969 -13.179)" fill="#f14c7c"/>
    </g>
    <g id="Group_642" data-name="Group 642" transform="translate(155.287 58.861)">
      <path id="Path_547" data-name="Path 547" d="M95.222,50.7H32.652a2.864,2.864,0,0,1-2.647-3.964,117.766,117.766,0,0,1,15.7-27.114l.137-.178a22.913,22.913,0,0,1,36.172,0A118,118,0,0,1,97.863,46.738,2.864,2.864,0,0,1,95.222,50.7ZM37.029,44.974H90.851a111.193,111.193,0,0,0-13.2-21.832,17.194,17.194,0,0,0-27.275-.178h-.006l-.137.178A111.447,111.447,0,0,0,37.029,44.974Z" transform="translate(-29.789 -10.601)" fill="#212a41"/>
    </g>
    <g id="Group_643" data-name="Group 643" transform="translate(60.538 238.166)">
      <path id="Path_548" data-name="Path 548" d="M13.75,102.552,99.682,42.4H122.6v94.525H13.75Z" transform="translate(-10.886 -39.536)" fill="#99a2b9"/>
      <path id="Path_549" data-name="Path 549" d="M124.961,142.154H16.114a2.865,2.865,0,0,1-2.864-2.864V104.917a2.882,2.882,0,0,1,1.22-2.349L100.4,42.416a2.867,2.867,0,0,1,1.644-.516h22.915a2.865,2.865,0,0,1,2.864,2.864v94.525A2.865,2.865,0,0,1,124.961,142.154ZM18.979,136.425H122.1v-88.8H102.946L18.979,106.406Z" transform="translate(-13.25 -41.9)" fill="#212a41"/>
    </g>
    <g id="Group_644" data-name="Group 644" transform="translate(83.453 238.162)">
      <path id="Path_550" data-name="Path 550" d="M17.75,102.552,103.682,42.4v94.525H17.75Z" transform="translate(-14.886 -39.531)" fill="#b7c0d7"/>
      <path id="Path_551" data-name="Path 551" d="M106.046,142.157H20.114a2.865,2.865,0,0,1-2.864-2.864V104.92a2.882,2.882,0,0,1,1.22-2.349L104.4,42.419a2.87,2.87,0,0,1,4.514,2.343v94.525A2.875,2.875,0,0,1,106.046,142.157Zm-83.067-5.729h80.2V50.268l-80.2,56.142Z" transform="translate(-17.25 -41.899)" fill="#212a41"/>
    </g>
    <g id="Group_645" data-name="Group 645" transform="translate(83.453 309.776)">
      <rect id="Rectangle_203" data-name="Rectangle 203" width="85.932" height="22.915" transform="translate(2.864 2.864)" fill="#d32e5e"/>
      <path id="Path_552" data-name="Path 552" d="M106.046,83.044H20.114A2.865,2.865,0,0,1,17.25,80.18V57.264A2.865,2.865,0,0,1,20.114,54.4h85.932a2.865,2.865,0,0,1,2.864,2.864V80.18A2.865,2.865,0,0,1,106.046,83.044ZM22.979,77.315h80.2V60.129h-80.2Z" transform="translate(-17.25 -54.4)" fill="#212a41"/>
    </g>
    <g id="Group_646" data-name="Group 646" transform="translate(60.538 309.776)">
      <rect id="Rectangle_204" data-name="Rectangle 204" width="22.915" height="22.915" transform="translate(2.864 2.864)" fill="#b51040"/>
      <path id="Path_553" data-name="Path 553" d="M39.03,83.044H16.114A2.865,2.865,0,0,1,13.25,80.18V57.264A2.865,2.865,0,0,1,16.114,54.4H39.03a2.865,2.865,0,0,1,2.864,2.864V80.18A2.865,2.865,0,0,1,39.03,83.044ZM18.979,77.315H36.165V60.129H18.979Z" transform="translate(-13.25 -54.4)" fill="#212a41"/>
    </g>
    <g id="Group_647" data-name="Group 647" transform="translate(215.215 139.459)">
      <path id="Path_554" data-name="Path 554" d="M43.114,163.479a2.865,2.865,0,0,1-2.864-2.864V27.534a2.864,2.864,0,1,1,5.729,0v133.08A2.865,2.865,0,0,1,43.114,163.479Z" transform="translate(-40.25 -24.67)" fill="#99a2b9"/>
    </g>
    <g id="Group_648" data-name="Group 648" transform="translate(77.724 77.76)">
      <path id="Path_555" data-name="Path 555" d="M19.114,76.917a2.865,2.865,0,0,1-2.864-2.864V16.764a2.864,2.864,0,1,1,5.729,0V74.052A2.865,2.865,0,0,1,19.114,76.917Z" transform="translate(-16.25 -13.9)" fill="#212a41"/>
    </g>
    <g id="Group_649" data-name="Group 649" transform="translate(77.724 146.505)">
      <path id="Path_556" data-name="Path 556" d="M19.114,37.358a2.865,2.865,0,0,1-2.864-2.864V28.764a2.864,2.864,0,1,1,5.729,0v5.729A2.865,2.865,0,0,1,19.114,37.358Z" transform="translate(-16.25 -25.9)" fill="#212a41"/>
    </g>
    <g id="Group_650" data-name="Group 650" transform="translate(278.232 143.641)">
      <path id="Path_557" data-name="Path 557" d="M54.114,88.417a2.865,2.865,0,0,1-2.864-2.864V28.264a2.864,2.864,0,0,1,5.729,0V85.552A2.865,2.865,0,0,1,54.114,88.417Z" transform="translate(-51.25 -25.4)" fill="#212a41"/>
    </g>
    <g id="Group_651" data-name="Group 651" transform="translate(278.232 212.386)">
      <path id="Path_558" data-name="Path 558" d="M54.114,48.858a2.865,2.865,0,0,1-2.864-2.864V40.264a2.864,2.864,0,0,1,5.729,0v5.729A2.865,2.865,0,0,1,54.114,48.858Z" transform="translate(-51.25 -37.4)" fill="#212a41"/>
    </g>
  </g>
</svg>
