<?xml version="1.0" encoding="utf-8"?>
<!-- Generator: Adobe Illustrator 22.0.0, SVG Export Plug-In . SVG Version: 6.00 Build 0)  -->
<svg version="1.1" id="Layer_1" xmlns="http://www.w3.org/2000/svg" xmlns:xlink="http://www.w3.org/1999/xlink" x="0px" y="0px"
	 viewBox="0 0 2455.7 1079" style="enable-background:new 0 0 2455.7 1079;" xml:space="preserve">
<style type="text/css">
	.st0{fill:#0C0C23;}
	.st1{fill:#FFED9F;}
</style>
<g transform="translate(3081 1069.835)">
	<g transform="translate(-3081 -791.395)">
		<path class="st0" d="M77.5,0H158c42.8,0,77.5,34.7,77.5,77.5l0,0c0,42.8-34.7,77.5-77.5,77.5H77.5C34.7,155.1,0,120.4,0,77.5l0,0
			C0,34.7,34.7,0,77.5,0z"/>
	</g>
	<g transform="translate(-976.635 -518.053)">
		<path class="st0" d="M77.5,0H158c42.8,0,77.5,34.7,77.5,77.5l0,0c0,42.8-34.7,77.5-77.5,77.5H77.5C34.7,155.1,0,120.4,0,77.5l0,0
			C0,34.7,34.7,0,77.5,0z"/>
	</g>
	<g transform="translate(-3053.835 -1069.835)">
		<path class="st0" d="M265.7,0h1711.9c36.7,0,66.4,41.3,66.4,92.2l0,0c0,41.2-24.1,74.6-53.9,74.6h-129.2
			c-18,0-32.6,20.3-32.6,45.3v23.6c0,25,14.6,45.3,32.6,45.3h317.1c29.7,0,53.9,33.4,53.9,74.7l0,0c0,41.1-24,74.5-53.6,74.7
			l-498.3,3.1c-18,0.1-32.5,20.3-32.5,45.3v11.4c0,25.1,14.8,45.4,32.9,45.3l293.9-2.9c30-0.3,54.3,33.4,54.2,74.9l0,17.7
			c-0.1,41.2-24.2,74.5-53.9,74.5h-390.4c-18,0-32.6,20.3-32.6,45.3v42.9c0,24.8,14.4,44.9,32.2,45.3l657.7,11.4
			c46.3,0.8,83.5,53.1,83.5,117.3l0,0c0,64.8-37.9,117.3-84.6,117.3H101.4C45.4,1079,0,1016,0,938.4l0,0
			c0-78,45.7-141.1,101.9-140.7l219.6,1.5c18.1,0.1,32.8-20.2,32.8-45.3v-20.9c0-25-14.6-45.3-32.6-45.3H162.4
			c-29.7,0-53.9-33.4-53.9-74.7v-5.4c0-41.3,24.1-74.7,53.9-74.7h457.7c18,0,32.6-20.3,32.6-45.3l0,0c0-25-14.6-45.3-32.6-45.3
			H309.5c-29.7,0-53.9-33.4-53.9-74.7v-15.2c0-41.3,24.1-74.7,53.9-74.7h352.1c18,0,32.6-20.3,32.6-45.3V195
			c0-25-14.6-45.3-32.6-45.3H265.7c-29.7,0-53.9-33.4-53.9-74.7v-0.3C211.9,33.4,236,0,265.7,0z"/>
	</g>
	<g transform="translate(38.879 19.14)">
		<path class="st1" d="M-1204.9-880c0,5.2-3,9.4-6.8,9.4s-6.8-4.2-6.8-9.4s3-9.4,6.8-9.4S-1204.9-885.3-1204.9-880z"/>
		<path class="st1" d="M-2766.1-533.7c0,5.2-3,9.4-6.8,9.4s-6.8-4.2-6.8-9.4s3-9.4,6.8-9.4S-2766.1-538.9-2766.1-533.7z"/>
		<path class="st1" d="M-1204.9-353c0,5.2-3,9.4-6.8,9.4s-6.8-4.2-6.8-9.4s3-9.4,6.8-9.4S-1204.9-358.2-1204.9-353z"/>
		<path class="st1" d="M-1016-173.9c0,5.2-3,9.4-6.8,9.4s-6.8-4.2-6.8-9.4s3-9.4,6.8-9.4S-1016-179.1-1016-173.9z"/>
		<path class="st1" d="M-1560.6-441.6c0,5.2-3,9.4-6.8,9.4s-6.8-4.2-6.8-9.4s3-9.4,6.8-9.4S-1560.6-446.8-1560.6-441.6z"/>
		<path class="st1" d="M-664.1-183.3c0,10.1-5.9,18.3-13.2,18.3s-13.2-8.2-13.2-18.3s5.9-18.3,13.2-18.3S-664.1-193.4-664.1-183.3z"
			/>
		<path class="st1" d="M-2321.5-929.9c0,7.2-4.2,13.1-9.5,13.1s-9.5-5.9-9.5-13.1s4.2-13.1,9.5-13.1S-2321.5-937.1-2321.5-929.9z"/>
		<path class="st1" d="M-832.3-504.1c-11.7,4.3-14.3,7.8-17.4,24.1c-3.1-16.3-5.6-19.8-17.4-24.1c11.7-4.3,14.3-7.8,17.4-24.1
			C-846.6-511.9-844-508.4-832.3-504.1z"/>
		<path class="st1" d="M-2220.9-300.5c-8.9,3.3-10.8,5.9-13.1,18.2c-2.4-12.3-4.3-14.9-13.1-18.2c8.9-3.3,10.8-5.9,13.1-18.2
			C-2231.7-306.4-2229.7-303.8-2220.9-300.5z"/>
		<path class="st1" d="M-1871.6-860.5c-8.9,3.3-10.8,5.9-13.1,18.2c-2.3-12.3-4.3-14.9-13.1-18.2c8.9-3.3,10.8-5.9,13.1-18.2
			C-1882.3-866.4-1880.4-863.7-1871.6-860.5z"/>
		<path class="st1" d="M-2755.2-198.5c-12,4.4-14.5,8-17.7,24.6c-3.2-16.6-5.7-20.2-17.7-24.6c12-4.4,14.5-8,17.7-24.6
			C-2769.8-206.5-2767.2-202.9-2755.2-198.5z"/>
		<path class="st1" d="M-2440.9-533.7c-14.4,5.3-17.5,9.6-21.3,29.6c-3.8-20-6.9-24.3-21.3-29.6c14.4-5.3,17.5-9.6,21.3-29.6
			C-2458.4-543.2-2455.3-538.9-2440.9-533.7z"/>
		<path class="st1" d="M-1324-591.1c-14.4,5.3-17.5,9.6-21.3,29.6c-3.8-20-6.9-24.3-21.3-29.6c14.4-5.3,17.5-9.6,21.3-29.6
			C-1341.5-600.7-1338.4-596.4-1324-591.1z"/>
		<path class="st1" d="M-2030.7-533.7c-15,5.5-18.2,10-22.1,30.7c-4-20.7-7.2-25.2-22.1-30.7c15-5.5,18.2-10,22.1-30.7
			C-2048.9-543.6-2045.7-539.2-2030.7-533.7z"/>
	</g>
</g>
</svg>
