<svg xmlns="http://www.w3.org/2000/svg" width="335.825" height="335.825" viewBox="0 0 335.825 335.825"><path d="M265.487,220.885H13.618A13.116,13.116,0,0,1,.5,207.767V13.618A13.116,13.116,0,0,1,13.618.5H265.487a13.116,13.116,0,0,1,13.118,13.118V207.767A13.12,13.12,0,0,1,265.487,220.885Z" transform="translate(2.124 2.124)" fill="#99a2b9"/><path d="M267.606,225.633H15.742A15.761,15.761,0,0,1,0,209.891V15.742A15.761,15.761,0,0,1,15.742,0H267.611a15.761,15.761,0,0,1,15.742,15.742V209.891A15.769,15.769,0,0,1,267.606,225.633ZM15.742,5.247A10.5,10.5,0,0,0,5.247,15.742V209.891a10.505,10.505,0,0,0,10.495,10.495H267.611a10.505,10.505,0,0,0,10.495-10.495V15.742A10.505,10.505,0,0,0,267.611,5.247Z" fill="#212a41"/><g transform="translate(26.236)"><path d="M270.487,220.885H18.618A13.116,13.116,0,0,1,5.5,207.767V13.618A13.116,13.116,0,0,1,18.618.5H270.487a13.116,13.116,0,0,1,13.118,13.118V207.767A13.12,13.12,0,0,1,270.487,220.885Z" transform="translate(-2.876 2.124)" fill="#0079a8"/><path d="M272.606,225.633H20.742A15.761,15.761,0,0,1,5,209.891V15.742A15.761,15.761,0,0,1,20.742,0H272.611a15.761,15.761,0,0,1,15.742,15.742V209.891A15.769,15.769,0,0,1,272.606,225.633ZM20.742,5.247A10.5,10.5,0,0,0,10.247,15.742V209.891a10.505,10.505,0,0,0,10.495,10.495H272.611a10.505,10.505,0,0,0,10.495-10.495V15.742A10.505,10.505,0,0,0,272.611,5.247Z" transform="translate(-5)" fill="#212a41"/></g><g transform="translate(110.187 149.547)"><path d="M168.424,29H21.5V99.838H189.413Z" transform="translate(-18.871 -26.376)" fill="#b7c0d7"/><path d="M191.535,104.585H23.623A2.625,2.625,0,0,1,21,101.962V31.124A2.625,2.625,0,0,1,23.623,28.5H170.546a2.621,2.621,0,0,1,2.513,1.879l20.989,70.838a2.626,2.626,0,0,1-2.513,3.369ZM26.252,99.338H188.025L168.594,33.747H26.252Z" transform="translate(-20.999 -28.5)" fill="#212a41"/></g><g transform="translate(0 220.385)"><path d="M265.487,42.5H13.618A13.116,13.116,0,0,0,.5,55.618v83.956a13.116,13.116,0,0,0,13.118,13.118H265.487a13.116,13.116,0,0,0,13.118-13.118V55.618A13.12,13.12,0,0,0,265.487,42.5Z" transform="translate(2.124 -39.876)" fill="#848483"/><path d="M267.606,157.44H15.742A15.761,15.761,0,0,1,0,141.7V57.742A15.761,15.761,0,0,1,15.742,42H267.611a15.761,15.761,0,0,1,15.742,15.742V141.7A15.769,15.769,0,0,1,267.606,157.44ZM15.742,47.247A10.505,10.505,0,0,0,5.247,57.742V141.7a10.505,10.505,0,0,0,10.495,10.495H267.611A10.505,10.505,0,0,0,278.105,141.7V57.742a10.505,10.505,0,0,0-10.495-10.495Z" transform="translate(0 -42)" fill="#212a41"/></g><g transform="translate(52.473 220.385)"><path d="M275.487,42.5H23.618A13.116,13.116,0,0,0,10.5,55.618v83.956a13.116,13.116,0,0,0,13.118,13.118H275.487a13.116,13.116,0,0,0,13.118-13.118V55.618A13.12,13.12,0,0,0,275.487,42.5Z" transform="translate(-7.876 -39.876)" fill="#a2a2a1"/><path d="M277.606,157.44H25.742A15.761,15.761,0,0,1,10,141.7V57.742A15.761,15.761,0,0,1,25.742,42H277.611a15.761,15.761,0,0,1,15.742,15.742V141.7A15.769,15.769,0,0,1,277.606,157.44ZM25.742,47.247A10.505,10.505,0,0,0,15.247,57.742V141.7a10.505,10.505,0,0,0,10.495,10.495H277.611A10.505,10.505,0,0,0,288.105,141.7V57.742a10.505,10.505,0,0,0-10.495-10.495Z" transform="translate(-10 -42)" fill="#212a41"/></g><g transform="translate(110.193 149.547)"><path d="M52.984,29H21.5V99.838H73.973Z" transform="translate(-18.876 -26.376)" fill="#99a2b9"/><path d="M76.1,104.585H23.624A2.625,2.625,0,0,1,21,101.962V31.124A2.625,2.625,0,0,1,23.624,28.5H55.107a2.621,2.621,0,0,1,2.513,1.879L78.61,101.217a2.626,2.626,0,0,1-2.513,3.369ZM26.247,99.338H72.586L53.15,33.747h-26.9Z" transform="translate(-21 -28.5)" fill="#212a41"/></g><g transform="translate(155.735 160.042)"><path d="M92.243,31l14.771,49.849H44.949L30.178,31Z" transform="translate(-27.561 -28.376)" fill="#d32e5e"/><path d="M109.132,85.6H47.067a2.616,2.616,0,0,1-2.513-1.879L29.788,33.869A2.626,2.626,0,0,1,32.3,30.5H94.366a2.621,2.621,0,0,1,2.513,1.879l14.771,49.849a2.626,2.626,0,0,1-2.519,3.369ZM49.025,80.349h56.592L92.4,35.747H35.812Z" transform="translate(-29.679 -30.5)" fill="#212a41"/></g><g transform="translate(231.102 160.042)"><path d="M80.063,85.6H61.436a2.621,2.621,0,0,1-2.513-1.879L44.151,33.869A2.626,2.626,0,0,1,46.665,30.5H65.292a2.621,2.621,0,0,1,2.513,1.879L82.577,82.228A2.626,2.626,0,0,1,80.063,85.6ZM63.393,80.349H76.548L63.33,35.747H50.175Z" transform="translate(-44.042 -30.5)" fill="#212a41"/></g><g transform="translate(162.66 220.385)"><rect width="115.44" height="110.193" transform="translate(2.629 2.624)" fill="#a2a2a1"/><path d="M149.063,157.44H33.623A2.625,2.625,0,0,1,31,154.816V44.624A2.625,2.625,0,0,1,33.623,42h115.44a2.625,2.625,0,0,1,2.624,2.624V154.816A2.625,2.625,0,0,1,149.063,157.44ZM36.252,152.193H146.444V47.247H36.252Z" transform="translate(-30.999 -42)" fill="#212a41"/></g><g transform="translate(102.319)"><path d="M119.7,26.736H46.236L20,.5H145.935Z" transform="translate(-17.374 2.124)" fill="#99a2b9"/><path d="M121.818,31.484H48.362a2.642,2.642,0,0,1-1.858-.766L20.268,4.481A2.627,2.627,0,0,1,22.126,0H148.06a2.627,2.627,0,0,1,1.858,4.481L123.681,30.718A2.664,2.664,0,0,1,121.818,31.484Zm-72.37-5.247h71.284L141.721,5.247H28.459Z" transform="translate(-19.5)" fill="#212a41"/></g><g transform="translate(110.193 220.385)"><rect width="52.473" height="110.193" transform="translate(2.624 2.624)" fill="#848483"/><path d="M76.1,157.44H23.624A2.625,2.625,0,0,1,21,154.816V44.624A2.625,2.625,0,0,1,23.624,42H76.1a2.625,2.625,0,0,1,2.624,2.624V154.816A2.625,2.625,0,0,1,76.1,157.44Zm-49.849-5.247H73.473V47.247H26.247Z" transform="translate(-21 -42)" fill="#212a41"/></g><g transform="translate(199.391 52.473)"><circle cx="34.107" cy="34.107" r="34.107" transform="translate(2.629 2.624)" fill="#f9ac2f"/><path d="M74.73,83.462a36.731,36.731,0,1,1,36.731-36.731A36.775,36.775,0,0,1,74.73,83.462Zm0-68.215a31.484,31.484,0,1,0,31.484,31.484A31.515,31.515,0,0,0,74.73,15.247Z" transform="translate(-37.999 -10)" fill="#212a41"/></g><g transform="translate(209.886 62.967)"><path d="M42.623,40.86A2.625,2.625,0,0,1,40,38.236,26.266,26.266,0,0,1,66.235,12a2.624,2.624,0,0,1,0,5.247A21.01,21.01,0,0,0,45.246,38.236,2.625,2.625,0,0,1,42.623,40.86Z" transform="translate(-39.999 -12)" fill="#ffca4d"/></g><g transform="translate(233.498 86.58)"><path d="M47.123,45.36a2.624,2.624,0,1,1,0-5.247A21.01,21.01,0,0,0,68.112,19.124a2.624,2.624,0,1,1,5.247,0A26.266,26.266,0,0,1,47.123,45.36Z" transform="translate(-44.499 -16.5)" fill="#db8e11"/></g><g transform="translate(186.273 81.333)"><path d="M125.2,26.495H41.247A5.249,5.249,0,0,1,36,21.247h0A5.249,5.249,0,0,1,41.247,16H125.2a5.249,5.249,0,0,1,5.247,5.247h0A5.249,5.249,0,0,1,125.2,26.495Z" transform="translate(-33.371 -13.376)" fill="#a2a2a1"/><path d="M127.326,31.242H43.37a7.871,7.871,0,1,1,0-15.742h83.956a7.871,7.871,0,1,1,0,15.742ZM43.37,20.747a2.624,2.624,0,1,0,0,5.247h83.956a2.624,2.624,0,1,0,0-5.247Z" transform="translate(-35.499 -15.5)" fill="#212a41"/></g><g transform="translate(144.3 112.816)"><ellipse cx="8" cy="7.5" rx="8" ry="7.5" transform="translate(2.7 3.009)" fill="#a2a2a1"/><path d="M37.995,42.489A10.495,10.495,0,1,1,48.489,31.995,10.505,10.505,0,0,1,37.995,42.489Zm0-15.742a5.247,5.247,0,1,0,5.247,5.247A5.256,5.256,0,0,0,37.995,26.747Z" transform="translate(-27.5 -21.5)" fill="#212a41"/></g><g transform="translate(112.816 62.967)"><circle cx="10.495" cy="10.495" r="10.495" transform="translate(2.624 2.624)" fill="#a2a2a1"/><path d="M34.618,38.236A13.118,13.118,0,1,1,47.736,25.118,13.136,13.136,0,0,1,34.618,38.236Zm0-20.989a7.871,7.871,0,1,0,7.871,7.871A7.881,7.881,0,0,0,34.618,17.247Z" transform="translate(-21.5 -12)" fill="#212a41"/></g><g transform="translate(70.838 99.698)"><circle cx="7.871" cy="7.871" r="7.871" transform="translate(2.624 2.624)" fill="#a2a2a1"/><path d="M23.995,39.989A10.495,10.495,0,1,1,34.489,29.495,10.505,10.505,0,0,1,23.995,39.989Zm0-15.742a5.247,5.247,0,1,0,5.247,5.247A5.256,5.256,0,0,0,23.995,24.247Z" transform="translate(-13.5 -19)" fill="#212a41"/></g><g transform="translate(278.1 220.385)"><path d="M105.973,68.736H53.5V42.5H92.855a13.116,13.116,0,0,1,13.118,13.118Z" transform="translate(-50.871 -39.876)" fill="#6c696f"/><path d="M108.1,73.484H55.623A2.625,2.625,0,0,1,53,70.86V44.624A2.625,2.625,0,0,1,55.623,42H94.977a15.761,15.761,0,0,1,15.742,15.742V70.86A2.625,2.625,0,0,1,108.1,73.484ZM58.246,68.236h47.225V57.742A10.505,10.505,0,0,0,94.977,47.247H58.246Z" transform="translate(-52.999 -42)" fill="#212a41"/></g><g transform="translate(0 220.385)"><path d="M.5,68.736H110.693V42.5H13.618A13.116,13.116,0,0,0,.5,55.618Z" transform="translate(2.124 -39.876)" fill="#4e4b51"/><path d="M112.816,73.484H2.624A2.621,2.621,0,0,1,0,70.86V57.742A15.761,15.761,0,0,1,15.742,42h97.075a2.625,2.625,0,0,1,2.624,2.624V70.86A2.625,2.625,0,0,1,112.816,73.484ZM5.247,68.236H110.193V47.247H15.742A10.505,10.505,0,0,0,5.247,57.742Z" transform="translate(0 -42)" fill="#212a41"/></g><g transform="translate(231.096 160.042)"><path d="M69.961,51.489H51.334a2.621,2.621,0,0,1-2.513-1.879L44.15,33.869A2.626,2.626,0,0,1,46.664,30.5H65.291A2.621,2.621,0,0,1,67.8,32.379l4.67,15.742a2.626,2.626,0,0,1-2.513,3.369ZM53.3,46.242H66.451L63.339,35.747H50.185Z" transform="translate(-44.041 -30.5)" fill="#212a41"/></g><g transform="translate(241.208 194.149)"><path d="M71.883,57.989H53.255a2.616,2.616,0,0,1-2.513-1.879L46.077,40.369A2.626,2.626,0,0,1,48.591,37H67.213a2.621,2.621,0,0,1,2.513,1.879L74.4,54.62a2.626,2.626,0,0,1-2.513,3.369ZM55.213,52.742H68.368L65.256,42.247H52.106Z" transform="translate(-45.968 -37)" fill="#212a41"/></g><g transform="translate(191.52 257.116)"><path d="M96.843,127.709H39.123a2.625,2.625,0,0,1-2.624-2.624V51.624A2.625,2.625,0,0,1,39.123,49h57.72a2.625,2.625,0,0,1,2.624,2.624v73.462A2.625,2.625,0,0,1,96.843,127.709Zm-55.1-5.247H94.219V54.247H41.746Z" transform="translate(-36.499 -49)" fill="#212a41"/></g><g transform="translate(52.473 220.385)"><path d="M10.5,68.736H68.22V42.5h-44.6A13.116,13.116,0,0,0,10.5,55.618Z" transform="translate(-7.876 -39.876)" fill="#6c696f"/><path d="M70.344,73.484H12.624A2.625,2.625,0,0,1,10,70.86V57.742A15.761,15.761,0,0,1,25.742,42h44.6a2.625,2.625,0,0,1,2.624,2.624V70.86A2.625,2.625,0,0,1,70.344,73.484Zm-55.1-5.247H67.72V47.247H25.742A10.505,10.505,0,0,0,15.247,57.742Z" transform="translate(-10 -42)" fill="#212a41"/></g><g transform="translate(36.731 13.118)"><path d="M9.624,201.9A2.621,2.621,0,0,1,7,199.273V5.124a2.624,2.624,0,1,1,5.247,0V199.273A2.625,2.625,0,0,1,9.624,201.9Z" transform="translate(-7 -2.5)" fill="#1e97c6"/></g><g transform="translate(293.842 13.118)"><path d="M58.623,201.9A2.625,2.625,0,0,1,56,199.273V5.124a2.624,2.624,0,0,1,5.247,0V199.273A2.625,2.625,0,0,1,58.623,201.9Z" transform="translate(-55.999 -2.5)" fill="#005b8a"/></g><g transform="translate(169.783 170.534)"><path d="M43.531,66.61a2.622,2.622,0,0,1-2.513-1.879l-8.553-28.86a2.625,2.625,0,0,1,5.032-1.5l8.553,28.86A2.626,2.626,0,0,1,44.276,66.5,2.443,2.443,0,0,1,43.531,66.61Z" transform="translate(-32.356 -32.499)" fill="#f14c7c"/></g><g transform="translate(173.155 230.88)"><path d="M35.623,138.451A2.625,2.625,0,0,1,33,135.827v-89.2a2.624,2.624,0,1,1,5.247,0v89.2A2.625,2.625,0,0,1,35.623,138.451Z" transform="translate(-32.999 -44)" fill="#c0c0bf"/></g><g transform="translate(120.687 230.88)"><path d="M25.624,138.451A2.625,2.625,0,0,1,23,135.827v-89.2a2.624,2.624,0,1,1,5.247,0v89.2A2.625,2.625,0,0,1,25.624,138.451Z" transform="translate(-23 -44)" fill="#a2a2a1"/></g><g transform="translate(152.171 230.88)"><path d="M31.624,138.451A2.625,2.625,0,0,1,29,135.827v-89.2a2.624,2.624,0,0,1,5.247,0v89.2A2.625,2.625,0,0,1,31.624,138.451Z" transform="translate(-29 -44)" fill="#666665"/></g><g transform="translate(267.606 230.88)"><path d="M53.623,138.451A2.625,2.625,0,0,1,51,135.827v-89.2a2.624,2.624,0,1,1,5.247,0v89.2A2.625,2.625,0,0,1,53.623,138.451Z" transform="translate(-50.999 -44)" fill="#848483"/></g><g transform="translate(10.495 257.116)"><path d="M4.624,114.591A2.621,2.621,0,0,1,2,111.967V51.624a2.624,2.624,0,0,1,5.247,0v60.344A2.625,2.625,0,0,1,4.624,114.591Z" transform="translate(-2 -49)" fill="#a2a2a1"/></g><g transform="translate(41.978 257.116)"><path d="M10.624,114.591A2.621,2.621,0,0,1,8,111.967V51.624a2.624,2.624,0,0,1,5.247,0v60.344A2.625,2.625,0,0,1,10.624,114.591Z" transform="translate(-8 -49)" fill="#666665"/></g></svg>