<svg xmlns="http://www.w3.org/2000/svg" width="290.845" height="310.563" viewBox="0 0 290.845 310.563"><g transform="translate(-2.5 -0.5)"><g transform="translate(12.359 30.077)"><path d="M144.993,287.486C67.525,287.486,4.5,224.461,4.5,146.993S67.525,6.5,144.993,6.5,285.486,69.525,285.486,146.993,222.461,287.486,144.993,287.486Zm0-276.056C70.241,11.43,9.43,72.241,9.43,146.993S70.241,282.556,144.993,282.556s135.563-60.811,135.563-135.563S219.745,11.43,144.993,11.43Z" transform="translate(-4.5 -6.5)" fill="#212a41"/></g><g transform="translate(39.472 57.19)"><path d="M12.465,127.845A2.466,2.466,0,0,1,10,125.38,113.51,113.51,0,0,1,123.38,12a2.465,2.465,0,1,1,0,4.93A108.572,108.572,0,0,0,14.93,125.38,2.466,2.466,0,0,1,12.465,127.845Z" transform="translate(-10 -12)" fill="#212a41"/></g><g transform="translate(150.387 168.105)"><path d="M34.965,150.345a2.465,2.465,0,0,1,0-4.93A108.572,108.572,0,0,0,143.415,36.965a2.465,2.465,0,1,1,4.93,0A113.51,113.51,0,0,1,34.965,150.345Z" transform="translate(-32.5 -34.5)" fill="#212a41"/></g><g transform="translate(234.19 57.19)"><circle cx="24.648" cy="24.648" r="24.648" transform="translate(2.465 2.465)" fill="#d32e5e"/><path d="M76.613,66.225a27.113,27.113,0,1,1,27.113-27.113A27.141,27.141,0,0,1,76.613,66.225Zm0-49.3A22.183,22.183,0,1,0,98.8,39.113,22.21,22.21,0,0,0,76.613,16.93Z" transform="translate(-49.5 -12)" fill="#212a41"/></g><g transform="translate(244.049 67.049)"><path d="M53.965,33.718A2.466,2.466,0,0,1,51.5,31.253,17.272,17.272,0,0,1,68.753,14a2.465,2.465,0,0,1,0,4.93A12.341,12.341,0,0,0,56.43,31.253,2.466,2.466,0,0,1,53.965,33.718Z" transform="translate(-51.5 -14)" fill="#f14c7c"/></g><g transform="translate(258.838 81.838)"><path d="M56.965,36.718a2.465,2.465,0,0,1,0-4.93A12.341,12.341,0,0,0,69.289,19.465a2.465,2.465,0,0,1,4.93,0A17.272,17.272,0,0,1,56.965,36.718Z" transform="translate(-54.5 -17)" fill="#b51040"/></g><g transform="translate(2.5 227.26)"><circle cx="24.648" cy="24.648" r="24.648" transform="translate(2.465 2.465)" fill="#0079a8"/><path d="M29.613,100.725A27.113,27.113,0,1,1,56.725,73.613,27.142,27.142,0,0,1,29.613,100.725Zm0-49.3A22.183,22.183,0,1,0,51.8,73.613,22.21,22.21,0,0,0,29.613,51.43Z" transform="translate(-2.5 -46.5)" fill="#212a41"/></g><g transform="translate(12.359 237.119)"><path d="M6.965,68.218A2.466,2.466,0,0,1,4.5,65.754,17.272,17.272,0,0,1,21.753,48.5a2.465,2.465,0,0,1,0,4.93A12.341,12.341,0,0,0,9.43,65.754,2.466,2.466,0,0,1,6.965,68.218Z" transform="translate(-4.5 -48.5)" fill="#1e97c6"/></g><g transform="translate(27.148 251.908)"><path d="M9.965,71.218a2.465,2.465,0,1,1,0-4.93A12.341,12.341,0,0,0,22.289,53.965a2.465,2.465,0,1,1,4.93,0A17.272,17.272,0,0,1,9.965,71.218Z" transform="translate(-7.5 -51.5)" fill="#005b8a"/></g><g transform="translate(229.26 246.979)"><circle cx="29.577" cy="29.577" r="29.577" transform="translate(2.465 2.465)" fill="#b7c0d7"/><path d="M80.542,114.584a32.042,32.042,0,1,1,32.042-32.042A32.079,32.079,0,0,1,80.542,114.584Zm0-59.155a27.113,27.113,0,1,0,27.113,27.113A27.141,27.141,0,0,0,80.542,55.43Z" transform="translate(-48.5 -50.5)" fill="#212a41"/></g><g transform="translate(239.119 256.838)"><path d="M52.965,77.148A2.466,2.466,0,0,1,50.5,74.683,22.21,22.21,0,0,1,72.683,52.5a2.465,2.465,0,0,1,0,4.93A17.272,17.272,0,0,0,55.43,74.683,2.466,2.466,0,0,1,52.965,77.148Z" transform="translate(-50.5 -52.5)" fill="#d5def5"/></g><g transform="translate(258.838 276.556)"><path d="M56.965,81.148a2.465,2.465,0,0,1,0-4.93A17.272,17.272,0,0,0,74.218,58.965a2.465,2.465,0,0,1,4.93,0A22.21,22.21,0,0,1,56.965,81.148Z" transform="translate(-54.5 -56.5)" fill="#99a2b9"/></g><g transform="translate(65.46 79.373)"><g transform="translate(2.463 2.465)"><path d="M100.7,17c9.036,0,16.213,11.052,24.372,13.709,8.444,2.751,20.734-1.863,27.773,3.263,7.1,5.176,6.477,18.323,11.649,25.427,5.127,7.035,17.855,10.465,20.606,18.915,2.652,8.153-5.526,18.382-5.526,27.418s8.178,19.265,5.521,27.423c-2.751,8.444-15.479,11.875-20.606,18.915-5.176,7.1-4.55,20.251-11.654,25.427-7.034,5.127-19.324.513-27.768,3.263-8.158,2.652-15.336,13.7-24.367,13.7s-16.213-11.052-24.372-13.709c-8.444-2.751-20.734,1.863-27.773-3.263-7.1-5.176-6.477-18.323-11.649-25.427C31.78,145.031,19.052,141.6,16.3,133.151c-2.652-8.154,5.526-18.387,5.526-27.418s-8.178-19.265-5.521-27.423c2.751-8.444,15.479-11.875,20.606-18.915,5.176-7.1,4.55-20.251,11.654-25.427,7.035-5.127,19.324-.513,27.768-3.263C84.492,28.052,91.669,17,100.7,17" transform="translate(-15.772 -17)" fill="#f9ac2f"/></g><path d="M102.664,198.894c-6.078,0-11.062-3.993-15.878-7.853-3.2-2.568-6.236-5-9.253-5.98-3.214-1.045-7.217-.882-11.461-.7-6.039.256-12.3.513-17-2.908-4.747-3.461-6.428-9.519-8.05-15.38-1.124-4.062-2.184-7.9-4.141-10.584-1.923-2.637-5.215-4.8-8.7-7.094-5.117-3.362-10.411-6.837-12.255-12.506-1.77-5.432.394-11.239,2.484-16.859,1.43-3.86,2.913-7.848,2.913-11.328s-1.484-7.473-2.918-11.328c-2.09-5.62-4.249-11.427-2.485-16.859,1.849-5.669,7.138-9.144,12.26-12.511,3.485-2.292,6.778-4.456,8.7-7.089,1.957-2.687,3.022-6.527,4.146-10.589,1.622-5.856,3.3-11.92,8.05-15.38,4.7-3.421,10.949-3.17,17-2.908,4.239.182,8.247.345,11.456-.7,3.022-.981,6.049-3.411,9.253-5.98,4.811-3.855,9.8-7.848,15.873-7.848s11.062,3.993,15.878,7.853c3.2,2.568,6.236,5,9.253,5.98,3.219,1.045,7.222.877,11.461.7,6.054-.246,12.3-.513,17,2.908,4.747,3.461,6.428,9.524,8.05,15.385,1.124,4.062,2.184,7.9,4.141,10.584,1.923,2.637,5.215,4.8,8.7,7.094,5.117,3.362,10.411,6.842,12.255,12.506,1.77,5.432-.394,11.239-2.485,16.859C185.485,100.229,184,104.217,184,107.7s1.484,7.468,2.918,11.328c2.09,5.62,4.249,11.427,2.485,16.859-1.849,5.664-7.138,9.139-12.255,12.506-3.49,2.292-6.778,4.456-8.7,7.094-1.957,2.687-3.022,6.527-4.146,10.584-1.622,5.861-3.3,11.92-8.05,15.38-4.7,3.426-10.944,3.165-17,2.908-4.244-.177-8.247-.34-11.461.7-3.022.981-6.049,3.411-9.253,5.98C113.726,194.9,108.742,198.894,102.664,198.894ZM70.671,179.3a27.161,27.161,0,0,1,8.385,1.075c3.875,1.262,7.4,4.092,10.811,6.823,4.348,3.48,8.449,6.768,12.8,6.768s8.449-3.288,12.8-6.768c3.406-2.731,6.936-5.556,10.811-6.823,4.067-1.321,8.711-1.129,13.192-.942,5.442.232,10.579.439,13.887-1.967,3.362-2.445,4.737-7.429,6.2-12.708,1.193-4.308,2.425-8.765,4.91-12.176,2.45-3.362,6.275-5.876,9.982-8.311,4.609-3.032,8.962-5.891,10.273-9.913,1.237-3.8-.537-8.568-2.415-13.615-1.587-4.264-3.229-8.676-3.229-13.044s1.642-8.78,3.229-13.044c1.878-5.048,3.653-9.82,2.415-13.615-1.311-4.023-5.664-6.882-10.273-9.913-3.7-2.435-7.527-4.949-9.977-8.311-2.485-3.411-3.717-7.868-4.91-12.171-1.459-5.28-2.839-10.263-6.2-12.713-3.308-2.415-8.449-2.194-13.892-1.972-4.491.192-9.125.384-13.192-.937-3.875-1.262-7.4-4.092-10.811-6.823-4.348-3.48-8.449-6.768-12.8-6.768s-8.449,3.288-12.8,6.768c-3.406,2.731-6.936,5.556-10.811,6.823-4.057,1.326-8.7,1.129-13.192.937-5.437-.222-10.584-.444-13.892,1.972-3.362,2.445-4.737,7.429-6.2,12.708-1.193,4.308-2.425,8.765-4.91,12.176-2.45,3.362-6.275,5.876-9.977,8.306-4.614,3.032-8.967,5.9-10.278,9.918-1.232,3.8.537,8.563,2.415,13.615,1.592,4.264,3.234,8.676,3.234,13.044s-1.642,8.78-3.229,13.044c-1.878,5.048-3.653,9.82-2.415,13.616,1.311,4.022,5.664,6.882,10.273,9.913,3.7,2.43,7.527,4.944,9.977,8.311,2.485,3.411,3.717,7.868,4.91,12.171,1.459,5.28,2.839,10.268,6.2,12.713,3.308,2.415,8.454,2.194,13.892,1.972C67.457,179.368,69.074,179.3,70.671,179.3Z" transform="translate(-15.272 -16.5)" fill="#212a41"/></g><g transform="translate(91.232 108.951)"><path d="M82.12,145.739a61.62,61.62,0,1,1,61.62-61.62A61.686,61.686,0,0,1,82.12,145.739Zm0-118.31a56.69,56.69,0,1,0,56.69,56.69A56.755,56.755,0,0,0,82.12,27.43Z" transform="translate(-20.5 -22.5)" fill="#212a41"/></g><g transform="translate(150.387 168.105)"><path d="M34.965,88.725a2.465,2.465,0,0,1,0-4.93A46.886,46.886,0,0,0,81.8,36.965a2.465,2.465,0,0,1,4.93,0A51.817,51.817,0,0,1,34.965,88.725Z" transform="translate(-32.5 -34.5)" fill="#db8e11"/></g><g transform="translate(91.232 108.951)"><path d="M45.648,82.155A59.155,59.155,0,0,1,92.479,24.306a59.155,59.155,0,1,0,0,115.7A59.164,59.164,0,0,1,45.648,82.155Z" transform="translate(-18.535 -20.535)" fill="#db8e11"/><path d="M82.12,145.739a61.62,61.62,0,0,1,0-123.239,62.342,62.342,0,0,1,12.837,1.356,2.467,2.467,0,0,1,0,4.826,56.68,56.68,0,0,0,0,110.876,2.464,2.464,0,0,1,0,4.821A61.94,61.94,0,0,1,82.12,145.739Zm0-118.31a56.69,56.69,0,1,0,0,113.38h.523a61.605,61.605,0,0,1,0-113.38Z" transform="translate(-20.5 -22.5)" fill="#212a41"/></g><g transform="translate(101.091 133.252)"><path d="M24.965,67.213A2.466,2.466,0,0,1,22.5,64.748a51.41,51.41,0,0,1,15.188-36.6,2.464,2.464,0,1,1,3.485,3.485A46.522,46.522,0,0,0,27.43,64.748,2.466,2.466,0,0,1,24.965,67.213Z" transform="translate(-22.5 -27.43)" fill="#f9ac2f"/></g><g transform="translate(32.077 57.19)"><circle cx="14.789" cy="14.789" r="14.789" transform="translate(2.465 2.465)" fill="#a2a2a1"/><path d="M25.753,46.507A17.253,17.253,0,1,1,43.007,29.254,17.272,17.272,0,0,1,25.753,46.507Zm0-29.577A12.324,12.324,0,1,0,38.077,29.254,12.341,12.341,0,0,0,25.753,16.93Z" transform="translate(-8.5 -12)" fill="#212a41"/></g><g transform="translate(66.584 0.5)"><circle cx="9.859" cy="9.859" r="9.859" transform="translate(2.465 2.465)" fill="#a2a2a1"/><path d="M27.824,25.148A12.324,12.324,0,1,1,40.148,12.824,12.341,12.341,0,0,1,27.824,25.148Zm0-19.718a7.394,7.394,0,1,0,7.394,7.394A7.4,7.4,0,0,0,27.824,5.43Z" transform="translate(-15.5 -0.5)" fill="#212a41"/></g></g></svg>