<svg xmlns="http://www.w3.org/2000/svg" width="200.02" height="280.042" viewBox="0 0 200.02 280.042"><g transform="translate(-60.538 -0.396)"><g transform="translate(113.875 0.396)"><path d="M87.977,258.7H25.75V54.772A66.676,66.676,0,0,1,47.574,5.439L49.387,3.79a11.109,11.109,0,0,1,14.948,0l1.813,1.649A66.676,66.676,0,0,1,87.973,54.772V258.7Z" transform="translate(-23.528 1.342)" fill="#f9ac2f"/><path d="M89.7,262.658H27.472a2.223,2.223,0,0,1-2.222-2.222V56.509A69.041,69.041,0,0,1,47.8,5.531l1.813-1.649a13.28,13.28,0,0,1,17.939,0l1.809,1.649A69.028,69.028,0,0,1,91.922,56.509V260.436A2.223,2.223,0,0,1,89.7,262.658Zm-60-4.445H87.477V56.509A64.583,64.583,0,0,0,66.382,8.821L64.569,7.172a8.843,8.843,0,0,0-11.957,0L50.794,8.825a64.554,64.554,0,0,0-21.1,47.684Z" transform="translate(-25.25 -0.396)" fill="#212a41"/></g><g transform="translate(113.875 0.396)"><path d="M89.7,59.625H27.472A2.223,2.223,0,0,1,25.25,57.4v-.893A69.041,69.041,0,0,1,47.8,5.531l1.813-1.649a13.274,13.274,0,0,1,17.935,0l1.813,1.649h0A69.028,69.028,0,0,1,91.922,56.509V57.4A2.22,2.22,0,0,1,89.7,59.625ZM29.708,55.18H87.464A64.6,64.6,0,0,0,66.382,8.821L64.569,7.172a8.854,8.854,0,0,0-11.961,0L50.794,8.821A64.59,64.59,0,0,0,29.708,55.18Z" transform="translate(-25.25 -0.396)" fill="#212a41"/></g><g transform="translate(123.326 9.883)"><path d="M29.6,43.382a1.832,1.832,0,0,1-.311-.022A2.224,2.224,0,0,1,27.4,40.853a60.17,60.17,0,0,1,19.059-36.1L48.275,3.1a2.225,2.225,0,0,1,2.987,3.3L49.444,8.05A55.736,55.736,0,0,0,31.8,41.471,2.219,2.219,0,0,1,29.6,43.382Z" transform="translate(-27.376 -2.53)" fill="#ffca4d"/></g><g transform="translate(176.102 71.159)"><path d="M46.084,22.191l1.285-2.138a6.665,6.665,0,0,1,11.432,0l1.285,2.138a44.473,44.473,0,0,1,6.334,22.868V217.206a4.446,4.446,0,0,1-4.445,4.445H44.195a4.446,4.446,0,0,1-4.445-4.445V45.059A44.461,44.461,0,0,1,46.084,22.191Z" transform="translate(-37.528 -14.594)" fill="#b7c0d7"/><path d="M63.7,225.595H45.917a6.675,6.675,0,0,1-6.667-6.667V46.781A46.7,46.7,0,0,1,45.9,22.77h0l1.285-2.138a8.887,8.887,0,0,1,15.246,0l1.285,2.133a46.661,46.661,0,0,1,6.649,24.011V218.927A6.675,6.675,0,0,1,63.7,225.595ZM49.713,25.054a42.218,42.218,0,0,0-6.018,21.726V218.927a2.226,2.226,0,0,0,2.222,2.222H63.7a2.226,2.226,0,0,0,2.222-2.222V46.781A42.218,42.218,0,0,0,59.9,25.054l-1.285-2.134a4.6,4.6,0,0,0-7.623,0Z" transform="translate(-39.25 -16.316)" fill="#212a41"/></g><g transform="translate(176.102 99.397)"><path d="M68.141,53.783H41.472A2.223,2.223,0,0,1,39.25,51.56V24.891a2.223,2.223,0,0,1,2.222-2.222H68.141a2.223,2.223,0,0,1,2.222,2.222V51.56A2.22,2.22,0,0,1,68.141,53.783ZM43.695,49.338H65.919V27.114H43.695Z" transform="translate(-39.25 -22.669)" fill="#212a41"/></g><g transform="translate(189.437 184.875)"><path d="M109.422,89.07,42.75,42.4v73.339h66.672Z" transform="translate(-40.528 -40.179)" fill="#b7c0d7"/><path d="M111.144,119.683H44.472a2.223,2.223,0,0,1-2.222-2.222V44.122a2.227,2.227,0,0,1,3.5-1.818l66.672,46.67a2.236,2.236,0,0,1,.947,1.822v26.669A2.229,2.229,0,0,1,111.144,119.683Zm-64.449-4.445h62.227V91.948L46.695,48.389Z" transform="translate(-42.25 -41.9)" fill="#212a41"/></g><g transform="translate(127.21 45.757)"><path d="M72.248,17.245l-.107-.138a15.553,15.553,0,0,0-24.557,0l-.107.138A88.884,88.884,0,0,0,28.751,71.823V223.559H90.978V71.823A88.915,88.915,0,0,0,72.248,17.245Z" transform="translate(-26.524 -8.88)" fill="#b7c0d7"/><path d="M92.7,227.5H30.472a2.223,2.223,0,0,1-2.222-2.222V73.544A91.551,91.551,0,0,1,47.443,17.6a17.782,17.782,0,0,1,28.176-.138l.107.138A91.551,91.551,0,0,1,94.917,73.544V225.28A2.217,2.217,0,0,1,92.7,227.5Zm-60-4.445H90.477V73.544A87.1,87.1,0,0,0,72.222,20.335l-.1-.138a13.336,13.336,0,0,0-21.055,0A87.212,87.212,0,0,0,32.7,73.544V223.058Z" transform="translate(-28.25 -10.601)" fill="#212a41"/></g><g transform="translate(100.541 71.159)"><path d="M29.084,22.191l1.285-2.138a6.665,6.665,0,0,1,11.432,0l1.285,2.138a44.473,44.473,0,0,1,6.334,22.868V217.206a4.446,4.446,0,0,1-4.445,4.445H27.195a4.446,4.446,0,0,1-4.445-4.445V45.059A44.461,44.461,0,0,1,29.084,22.191Z" transform="translate(-20.528 -14.594)" fill="#99a2b9"/><path d="M46.7,225.595H28.917a6.675,6.675,0,0,1-6.667-6.667V46.781A46.7,46.7,0,0,1,28.9,22.77h0l1.285-2.138a8.887,8.887,0,0,1,15.246,0l1.285,2.133a46.661,46.661,0,0,1,6.649,24.011V218.927A6.675,6.675,0,0,1,46.7,225.595ZM32.713,25.054a42.218,42.218,0,0,0-6.018,21.726V218.927a2.226,2.226,0,0,0,2.222,2.222H46.7a2.226,2.226,0,0,0,2.222-2.222V46.781A42.218,42.218,0,0,0,42.9,25.054l-1.285-2.134a4.6,4.6,0,0,0-7.623,0Z" transform="translate(-22.25 -16.316)" fill="#212a41"/></g><g transform="translate(109.431 82.185)"><path d="M26.472,208.16a2.223,2.223,0,0,1-2.222-2.222V38.235a37.871,37.871,0,0,1,4.72-18.29A2.223,2.223,0,0,1,32.86,22.1,33.427,33.427,0,0,0,28.695,38.24v167.7A2.223,2.223,0,0,1,26.472,208.16Z" transform="translate(-24.25 -18.797)" fill="#d5def5"/></g><g transform="translate(189.437 240.434)"><rect width="66.672" height="17.779" transform="translate(2.222 2.222)" fill="#d32e5e"/><path d="M111.144,76.624H44.472A2.223,2.223,0,0,1,42.25,74.4V56.622A2.223,2.223,0,0,1,44.472,54.4h66.672a2.223,2.223,0,0,1,2.222,2.222V74.4A2.223,2.223,0,0,1,111.144,76.624ZM46.695,72.179h62.227V58.845H46.695Z" transform="translate(-42.25 -54.4)" fill="#212a41"/></g><g transform="translate(136.273 47.977)"><path d="M42.281,17.108l-.107.138A88.564,88.564,0,0,0,30.289,37.771H78.835A89.068,89.068,0,0,0,66.95,17.245l-.107-.138A15.557,15.557,0,0,0,42.281,17.108Z" transform="translate(-30.289 -11.1)" fill="#d32e5e"/></g><g transform="translate(180.547 220.433)"><path d="M54.084,50.4H40.75V88.181H76.308Z" transform="translate(-38.528 -48.178)" fill="#b7c0d7"/><path d="M78.031,92.125H42.472A2.223,2.223,0,0,1,40.25,89.9V52.122A2.223,2.223,0,0,1,42.472,49.9H55.807A2.224,2.224,0,0,1,57.722,51L79.946,88.779a2.222,2.222,0,0,1-1.916,3.347ZM44.695,87.681H74.146L54.536,54.345H44.695Z" transform="translate(-40.25 -49.9)" fill="#212a41"/></g><g transform="translate(167.213 220.433)"><path d="M51.084,50.4H37.75V88.181H73.308Z" transform="translate(-35.528 -48.178)" fill="#99a2b9"/><path d="M75.031,92.125H39.472A2.223,2.223,0,0,1,37.25,89.9V52.122A2.223,2.223,0,0,1,39.472,49.9H52.807A2.224,2.224,0,0,1,54.722,51L76.946,88.779a2.222,2.222,0,0,1-1.916,3.347ZM41.695,87.681H71.146L51.536,54.345H41.695Z" transform="translate(-37.25 -49.9)" fill="#212a41"/></g><g transform="translate(100.541 99.623)"><path d="M51.141,53.834H24.472a2.223,2.223,0,0,1-2.222-2.222V24.942a2.223,2.223,0,0,1,2.222-2.222H51.141a2.223,2.223,0,0,1,2.222,2.222V51.611A2.22,2.22,0,0,1,51.141,53.834ZM26.695,49.389H48.919V27.165H26.695Z" transform="translate(-22.25 -22.72)" fill="#212a41"/></g><g transform="translate(158.323 88.285)"><path d="M64.908,20.67H35.75V31.782H66.57A89.432,89.432,0,0,0,64.908,20.67Z" transform="translate(-33.528 -18.443)" fill="#0079a8"/><path d="M68.293,35.726H37.472A2.223,2.223,0,0,1,35.25,33.5V22.391a2.223,2.223,0,0,1,2.222-2.222H66.63A2.221,2.221,0,0,1,68.8,21.938a91.23,91.23,0,0,1,1.7,11.388,2.2,2.2,0,0,1-.582,1.685A2.235,2.235,0,0,1,68.293,35.726Zm-28.6-4.445H65.843c-.244-2.111-.582-4.316-1.036-6.667H39.695Z" transform="translate(-35.25 -20.169)" fill="#212a41"/></g><g transform="translate(136.099 57.217)"><path d="M32.472,136.391a2.223,2.223,0,0,1-2.222-2.222V64.661A82.874,82.874,0,0,1,47.682,14.04a2.223,2.223,0,0,1,3.507,2.734A78.4,78.4,0,0,0,34.695,64.666v69.5A2.223,2.223,0,0,1,32.472,136.391Z" transform="translate(-30.25 -13.179)" fill="#d5def5"/></g><g transform="translate(143.74 57.217)"><path d="M34.191,32.832a2.251,2.251,0,0,1-.947-.209,2.22,2.22,0,0,1-1.062-2.956A83.056,83.056,0,0,1,41.761,14.04a2.223,2.223,0,0,1,3.507,2.734A78.421,78.421,0,0,0,36.2,31.557,2.22,2.22,0,0,1,34.191,32.832Z" transform="translate(-31.969 -13.179)" fill="#f14c7c"/></g><g transform="translate(134.051 45.757)"><path d="M80.557,41.715H32.011a2.222,2.222,0,0,1-2.053-3.076A91.37,91.37,0,0,1,42.14,17.6l.107-.138a17.777,17.777,0,0,1,28.064,0A91.55,91.55,0,0,1,82.606,38.639a2.222,2.222,0,0,1-2.049,3.076ZM35.407,37.27H77.165A86.271,86.271,0,0,0,66.92,20.331a13.341,13.341,0,0,0-21.162-.138h0l-.107.138A86.469,86.469,0,0,0,35.407,37.27Z" transform="translate(-29.789 -10.601)" fill="#212a41"/></g><g transform="translate(60.538 184.874)"><path d="M13.75,89.07,80.422,42.4H98.2v73.339H13.75Z" transform="translate(-11.528 -40.178)" fill="#99a2b9"/><path d="M99.923,119.684H15.472a2.223,2.223,0,0,1-2.222-2.222V90.793A2.236,2.236,0,0,1,14.2,88.97L80.869,42.3a2.224,2.224,0,0,1,1.276-.4H99.923a2.223,2.223,0,0,1,2.222,2.222v73.339A2.223,2.223,0,0,1,99.923,119.684Zm-82.229-4.445H97.7V46.345H82.842l-65.147,45.6Z" transform="translate(-13.25 -41.9)" fill="#212a41"/></g><g transform="translate(78.317 184.871)"><path d="M17.75,89.07,84.422,42.4v73.339H17.75Z" transform="translate(-15.528 -40.174)" fill="#b7c0d7"/><path d="M86.144,119.686H19.472a2.223,2.223,0,0,1-2.222-2.222V90.8a2.236,2.236,0,0,1,.947-1.822L84.869,42.3a2.227,2.227,0,0,1,3.5,1.818V117.46A2.231,2.231,0,0,1,86.144,119.686Zm-64.449-4.445H83.922V48.392L21.695,91.951Z" transform="translate(-17.25 -41.899)" fill="#212a41"/></g><g transform="translate(78.317 240.434)"><rect width="66.672" height="17.779" transform="translate(2.222 2.222)" fill="#d32e5e"/><path d="M86.144,76.624H19.472A2.223,2.223,0,0,1,17.25,74.4V56.622A2.223,2.223,0,0,1,19.472,54.4H86.144a2.223,2.223,0,0,1,2.222,2.222V74.4A2.223,2.223,0,0,1,86.144,76.624ZM21.695,72.179H83.922V58.845H21.695Z" transform="translate(-17.25 -54.4)" fill="#212a41"/></g><g transform="translate(60.538 240.434)"><rect width="17.779" height="17.779" transform="translate(2.222 2.222)" fill="#b51040"/><path d="M33.252,76.624H15.472A2.223,2.223,0,0,1,13.25,74.4V56.622A2.223,2.223,0,0,1,15.472,54.4H33.252a2.223,2.223,0,0,1,2.222,2.222V74.4A2.223,2.223,0,0,1,33.252,76.624ZM17.695,72.179H31.029V58.845H17.695Z" transform="translate(-13.25 -54.4)" fill="#212a41"/></g><g transform="translate(180.547 108.291)"><path d="M42.472,132.367a2.223,2.223,0,0,1-2.222-2.222V26.892a2.222,2.222,0,0,1,4.445,0V130.145A2.223,2.223,0,0,1,42.472,132.367Z" transform="translate(-40.25 -24.67)" fill="#99a2b9"/></g><g transform="translate(73.872 60.42)"><path d="M18.472,62.793A2.223,2.223,0,0,1,16.25,60.57V16.122a2.222,2.222,0,0,1,4.445,0V60.57A2.223,2.223,0,0,1,18.472,62.793Z" transform="translate(-16.25 -13.9)" fill="#212a41"/></g><g transform="translate(73.872 113.758)"><path d="M18.472,34.79a2.223,2.223,0,0,1-2.222-2.222V28.122a2.222,2.222,0,1,1,4.445,0v4.445A2.223,2.223,0,0,1,18.472,34.79Z" transform="translate(-16.25 -25.9)" fill="#212a41"/></g><g transform="translate(229.44 111.535)"><path d="M53.472,74.293A2.223,2.223,0,0,1,51.25,72.07V27.622a2.222,2.222,0,0,1,4.445,0V72.07A2.223,2.223,0,0,1,53.472,74.293Z" transform="translate(-51.25 -25.4)" fill="#212a41"/></g><g transform="translate(229.44 164.873)"><path d="M53.472,46.29a2.223,2.223,0,0,1-2.222-2.222V39.622a2.222,2.222,0,0,1,4.445,0v4.445A2.223,2.223,0,0,1,53.472,46.29Z" transform="translate(-51.25 -37.4)" fill="#212a41"/></g></g></svg>