<svg xmlns="http://www.w3.org/2000/svg" width="200" height="200" viewBox="0 0 200 200"><g transform="translate(24.602 57.054)"><path d="M62.316,87.782H16.188A7.687,7.687,0,0,1,8.5,80.094V26.278a7.687,7.687,0,0,1,7.688-7.688H62.316A7.687,7.687,0,0,1,70,26.278V80.094A7.689,7.689,0,0,1,62.316,87.782Z" transform="translate(-6.962 -17.052)" fill="#848483"/><path d="M63.354,90.358H17.226A9.237,9.237,0,0,1,8,81.132V27.316a9.237,9.237,0,0,1,9.226-9.226H63.354a9.237,9.237,0,0,1,9.226,9.226V81.132A9.237,9.237,0,0,1,63.354,90.358ZM17.226,21.165a6.157,6.157,0,0,0-6.15,6.15V81.132a6.157,6.157,0,0,0,6.15,6.15H63.354a6.157,6.157,0,0,0,6.15-6.15V27.316a6.157,6.157,0,0,0-6.15-6.15Z" transform="translate(-8 -18.09)" fill="#212a41"/></g><g transform="translate(42.517 57.052)"><path d="M67.955,87.644H21.826a7.687,7.687,0,0,1-7.688-7.688L14,26.278a7.687,7.687,0,0,1,7.688-7.688H67.816A7.687,7.687,0,0,1,75.5,26.278l.138,53.678A7.689,7.689,0,0,1,67.955,87.644Z" transform="translate(-12.462 -17.052)" fill="#a2a2a1"/><path d="M68.992,90.219H22.864a9.237,9.237,0,0,1-9.226-9.226L13.5,27.319a9.236,9.236,0,0,1,9.226-9.229H68.854a9.237,9.237,0,0,1,9.226,9.226l.138,53.675A9.238,9.238,0,0,1,68.992,90.219ZM22.726,21.165a6.157,6.157,0,0,0-6.15,6.15l.138,53.675a6.157,6.157,0,0,0,6.15,6.154H68.992a6.157,6.157,0,0,0,6.15-6.15L75,27.319a6.157,6.157,0,0,0-6.15-6.154Z" transform="translate(-13.5 -18.09)" fill="#212a41"/></g><g transform="translate(89.916 67.514)"><path d="M90.507,65.054H59.752a9.239,9.239,0,0,1-6.944-3.149L31.282,37.3a9.225,9.225,0,0,1,13.885-12.15L63.937,46.606h26.57a9.224,9.224,0,1,1,0,18.448Z" transform="translate(-27.467 -20.459)" fill="#b7c0d7"/><path d="M91.541,67.629H60.785a10.762,10.762,0,0,1-8.1-3.675l-21.527-24.6a10.765,10.765,0,1,1,16.2-14.177L65.672,46.1H91.541a10.763,10.763,0,0,1,0,21.527ZM39.25,24.576a7.69,7.69,0,0,0-5.775,12.753L55,61.931a7.693,7.693,0,0,0,5.784,2.626H91.541a7.688,7.688,0,0,0,0-15.376H64.971a1.532,1.532,0,0,1-1.156-.526L45.043,27.2a7.638,7.638,0,0,0-5.274-2.611C39.6,24.579,39.422,24.576,39.25,24.576Z" transform="translate(-28.501 -21.5)" fill="#212a41"/></g><g transform="translate(13.838 69.303)"><path d="M109.558,128.1h-4.5L88.031,22H41.9L24.872,128.1h-4.5A15.378,15.378,0,0,0,5,143.471v3.075a3.076,3.076,0,0,0,3.075,3.075H50.221a7.688,7.688,0,0,0,7.66-7.03l3.77-43.973a3.073,3.073,0,0,1,3.063-2.814h.5a3.073,3.073,0,0,1,3.063,2.814l3.77,43.973a7.688,7.688,0,0,0,7.66,7.03h42.146a3.076,3.076,0,0,0,3.075-3.075v-3.075A15.376,15.376,0,0,0,109.558,128.1Z" transform="translate(-3.462 -20.462)" fill="#b7c0d7"/><path d="M122.9,152.2H80.75a9.173,9.173,0,0,1-9.192-8.438l-3.77-43.973a1.528,1.528,0,0,0-1.531-1.405h-.5a1.533,1.533,0,0,0-1.535,1.408l-3.77,43.97a9.168,9.168,0,0,1-9.189,8.438H9.113A4.618,4.618,0,0,1,4.5,147.584v-3.075A16.932,16.932,0,0,1,21.414,127.6H24.6l16.825-104.8A1.537,1.537,0,0,1,42.94,21.5H89.069a1.537,1.537,0,0,1,1.519,1.295l16.821,104.8H110.6a16.932,16.932,0,0,1,16.914,16.914v3.075A4.618,4.618,0,0,1,122.9,152.2ZM65.752,95.305h.5a4.585,4.585,0,0,1,4.594,4.219l3.77,43.973a6.115,6.115,0,0,0,6.129,5.625H122.9a1.538,1.538,0,0,0,1.538-1.538v-3.075A13.855,13.855,0,0,0,110.6,130.67h-4.5a1.537,1.537,0,0,1-1.519-1.295L87.759,24.575H44.25l-16.825,104.8a1.537,1.537,0,0,1-1.519,1.295H21.414A13.855,13.855,0,0,0,7.575,144.509v3.075a1.538,1.538,0,0,0,1.538,1.538H51.259a6.12,6.12,0,0,0,6.129-5.625l3.77-43.973A4.583,4.583,0,0,1,65.752,95.305Z" transform="translate(-4.5 -21.5)" fill="#212a41"/></g><g transform="translate(80.134 160.022)"><path d="M81.414,85.327V82.252A15.378,15.378,0,0,0,66.038,66.876h-4.5L59.073,51.5h-33.1l2.562,29.873a7.688,7.688,0,0,0,7.66,7.03H78.339A3.076,3.076,0,0,0,81.414,85.327Z" transform="translate(-24.434 -49.962)" fill="#a2a2a1"/><path d="M79.376,90.978H37.23a9.173,9.173,0,0,1-9.192-8.438L25.477,52.67A1.543,1.543,0,0,1,27.008,51h33.1a1.537,1.537,0,0,1,1.519,1.295l2.257,14.081h3.186A16.932,16.932,0,0,1,83.989,83.29v3.075A4.618,4.618,0,0,1,79.376,90.978Zm-50.692-36.9,2.417,28.2A6.115,6.115,0,0,0,37.23,87.9H79.376a1.538,1.538,0,0,0,1.538-1.538V83.29A13.855,13.855,0,0,0,67.075,69.451h-4.5a1.537,1.537,0,0,1-1.519-1.295L58.8,54.075Z" transform="translate(-25.471 -51)" fill="#212a41"/></g><g transform="translate(44.09)"><circle cx="30.752" cy="30.752" r="30.752" transform="translate(1.538 1.538)" fill="#b7c0d7"/><path d="M46.29,64.58A32.29,32.29,0,1,1,78.58,32.29,32.325,32.325,0,0,1,46.29,64.58Zm0-61.5A29.215,29.215,0,1,0,75.5,32.29,29.249,29.249,0,0,0,46.29,3.075Z" transform="translate(-14 0)" fill="#212a41"/></g><g transform="translate(50.13 6.15)"><path d="M17.538,29.677A1.538,1.538,0,0,1,16,28.139,26.169,26.169,0,0,1,42.139,2a1.538,1.538,0,0,1,0,3.075A23.088,23.088,0,0,0,19.075,28.139,1.538,1.538,0,0,1,17.538,29.677Z" transform="translate(-16 -2)" fill="#d5def5"/></g><g transform="translate(56.478 56.318)"><rect width="36.903" height="10.763" transform="translate(1.538 1.538)" fill="#b7c0d7"/><path d="M56.44,31.839h-36.9A1.538,1.538,0,0,1,18,30.3V19.538A1.538,1.538,0,0,1,19.538,18h36.9a1.538,1.538,0,0,1,1.538,1.538V30.3A1.538,1.538,0,0,1,56.44,31.839ZM21.075,28.763H54.9V21.075H21.075Z" transform="translate(-18 -18)" fill="#212a41"/></g><g transform="translate(64.375 18.451)"><path d="M56.365,31.1H28.688A7.687,7.687,0,0,1,21,23.414V14.188A7.687,7.687,0,0,1,28.688,6.5H56.365a7.687,7.687,0,0,1,7.688,7.688v9.226A7.687,7.687,0,0,1,56.365,31.1Z" transform="translate(-19.462 -4.962)" fill="#0079a8"/><path d="M57.4,33.677H29.726A9.237,9.237,0,0,1,20.5,24.451V15.226A9.237,9.237,0,0,1,29.726,6H57.4a9.237,9.237,0,0,1,9.226,9.226v9.226A9.237,9.237,0,0,1,57.4,33.677ZM29.726,9.075a6.157,6.157,0,0,0-6.15,6.15v9.226a6.157,6.157,0,0,0,6.15,6.15H57.4a6.157,6.157,0,0,0,6.15-6.15V15.226a6.157,6.157,0,0,0-6.15-6.15Z" transform="translate(-20.5 -6)" fill="#212a41"/></g><g transform="translate(13.838 160.022)"><path d="M57.882,81.372,60.443,51.5h-33.1L24.869,66.875H20.376A15.378,15.378,0,0,0,5,82.251v3.075A3.076,3.076,0,0,0,8.075,88.4H50.221A7.683,7.683,0,0,0,57.882,81.372Z" transform="translate(-3.462 -49.964)" fill="#a2a2a1"/><path d="M51.259,90.978H9.113A4.618,4.618,0,0,1,4.5,86.365V83.29A16.932,16.932,0,0,1,21.414,66.376H24.6l2.26-14.081A1.542,1.542,0,0,1,28.376,51h33.1a1.539,1.539,0,0,1,1.531,1.667l-2.562,29.87A9.168,9.168,0,0,1,51.259,90.978ZM21.414,69.451A13.855,13.855,0,0,0,7.575,83.29v3.075A1.538,1.538,0,0,0,9.113,87.9H51.259a6.12,6.12,0,0,0,6.129-5.625l2.414-28.2H29.686l-2.26,14.081a1.537,1.537,0,0,1-1.519,1.295ZM58.919,82.407h0Z" transform="translate(-4.5 -51)" fill="#212a41"/></g><g transform="translate(19.989 166.17)"><path d="M8.038,80.679A1.538,1.538,0,0,1,6.5,79.141,10.775,10.775,0,0,1,17.263,68.378h4.493A4.594,4.594,0,0,0,26.311,64.5L27.95,54.3a1.538,1.538,0,1,1,3.038.486l-1.639,10.2a7.658,7.658,0,0,1-7.593,6.47H17.263a7.7,7.7,0,0,0-7.688,7.688A1.538,1.538,0,0,1,8.038,80.679Z" transform="translate(-6.5 -52.999)" fill="#c0c0bf"/></g><g transform="translate(44.154 74.263)"><path d="M15.651,104.994a1.687,1.687,0,0,1-.246-.018,1.54,1.54,0,0,1-1.276-1.762L26.716,24.8a1.538,1.538,0,1,1,3.038.486L17.167,103.7A1.535,1.535,0,0,1,15.651,104.994Z" transform="translate(-14.11 -23.5)" fill="#d5def5"/></g><g transform="translate(108.156 166.17)"><path d="M57.5,80.679a1.538,1.538,0,0,1-1.538-1.538,7.7,7.7,0,0,0-7.688-7.688h-4.5a7.657,7.657,0,0,1-7.59-6.47l-1.636-10.2A1.538,1.538,0,1,1,37.59,54.3l1.636,10.2a4.589,4.589,0,0,0,4.551,3.881h4.5A10.775,10.775,0,0,1,59.036,79.141,1.538,1.538,0,0,1,57.5,80.679Z" transform="translate(-34.532 -52.999)" fill="#848483"/></g><g transform="translate(93.239 74.263)"><path d="M43.921,104.994a1.537,1.537,0,0,1-1.516-1.295L29.815,25.282a1.538,1.538,0,1,1,3.038-.486l12.59,78.418a1.539,1.539,0,0,1-1.276,1.762A1.72,1.72,0,0,1,43.921,104.994Z" transform="translate(-29.796 -23.5)" fill="#99a2b9"/></g><g transform="translate(7.688 37.562)"><path d="M4.038,30.451A1.538,1.538,0,0,1,2.5,28.914V13.538a1.538,1.538,0,0,1,3.075,0V28.914A1.538,1.538,0,0,1,4.038,30.451Z" transform="translate(-2.5 -12)" fill="#212a41"/></g><g transform="translate(0 45.324)"><path d="M16.914,17.575H1.538a1.538,1.538,0,1,1,0-3.075H16.914a1.538,1.538,0,1,1,0,3.075Z" transform="translate(0 -14.5)" fill="#212a41"/></g><g transform="translate(13.838 7.688)"><circle cx="6" cy="6" r="6" transform="translate(2.162 2.126)" fill="#a2a2a1"/><path d="M12.188,17.876a7.688,7.688,0,1,1,7.688-7.688A7.7,7.7,0,0,1,12.188,17.876Zm0-12.3A4.613,4.613,0,1,0,16.8,10.188,4.618,4.618,0,0,0,12.188,5.575Z" transform="translate(-4.5 -2.5)" fill="#212a41"/></g><g transform="translate(147.721 3.075)"><path d="M96.7,52.239H75.8a7.687,7.687,0,0,1-6-2.885l-1.535-1.916a7.687,7.687,0,0,0-6-2.885H47.5V1.5H62.255a7.687,7.687,0,0,1,6,2.885L69.792,6.3A7.693,7.693,0,0,0,75.8,9.186H96.7Z" transform="translate(-45.962 0.04)" fill="#d32e5e"/><path d="M97.741,54.816H76.836a9.192,9.192,0,0,1-7.205-3.463L68.1,49.435a6.111,6.111,0,0,0-4.8-2.306H48.538A1.538,1.538,0,0,1,47,45.591V2.538A1.538,1.538,0,0,1,48.538,1H63.3a9.179,9.179,0,0,1,7.2,3.46l1.535,1.922a6.117,6.117,0,0,0,4.8,2.306H97.741a1.538,1.538,0,0,1,1.538,1.538V53.279A1.538,1.538,0,0,1,97.741,54.816ZM50.075,44.053H63.3a9.179,9.179,0,0,1,7.2,3.46l1.535,1.919a6.117,6.117,0,0,0,4.8,2.306H96.2V11.76H76.836A9.192,9.192,0,0,1,69.631,8.3L68.1,6.382a6.111,6.111,0,0,0-4.8-2.306H50.075Z" transform="translate(-47 -1)" fill="#212a41"/></g><g transform="translate(137.646)"><path d="M50.65.5H47.575A3.1,3.1,0,0,0,44.5,3.626V194.3a3.1,3.1,0,0,0,3.075,3.126H50.65a3.1,3.1,0,0,0,3.075-3.126V3.626A3.1,3.1,0,0,0,50.65.5Z" transform="translate(-42.962 1.038)" fill="#a2a2a1"/><path d="M51.688,200H48.613A4.656,4.656,0,0,1,44,195.313V4.688A4.656,4.656,0,0,1,48.613,0h3.075A4.656,4.656,0,0,1,56.3,4.688V195.313A4.656,4.656,0,0,1,51.688,200ZM48.613,3.125a1.551,1.551,0,0,0-1.538,1.562V195.313a1.551,1.551,0,0,0,1.538,1.562h3.075a1.551,1.551,0,0,0,1.538-1.562V4.688a1.551,1.551,0,0,0-1.538-1.562Z" transform="translate(-44)" fill="#212a41"/></g><g transform="translate(153.164 9.226)"><path d="M50.538,36.827A1.538,1.538,0,0,1,49,35.29V4.538a1.538,1.538,0,1,1,3.075,0V35.29A1.538,1.538,0,0,1,50.538,36.827Z" transform="translate(-49 -3)" fill="#f14c7c"/></g><g transform="translate(190.774 16.914)"><path d="M62.538,39.327A1.538,1.538,0,0,1,61,37.79V7.038a1.538,1.538,0,1,1,3.075,0V37.79A1.538,1.538,0,0,1,62.538,39.327Z" transform="translate(-61 -5.5)" fill="#b51040"/></g><g transform="translate(40.817 67.83)"><path d="M13.5,31.226V61.981a9.239,9.239,0,0,0,3.149,6.944l24.6,21.527A9.225,9.225,0,0,0,53.4,76.567L31.946,57.8V31.226a9.224,9.224,0,1,0-18.448,0Z" transform="translate(-11.96 -20.462)" fill="#99a2b9"/><path d="M48.357,95.305a10.737,10.737,0,0,1-7.082-2.657l-24.6-21.527A10.761,10.761,0,0,1,13,63.022V32.263a10.763,10.763,0,1,1,21.527,0V58.135l20.927,18.31a10.761,10.761,0,0,1-7.095,18.86Zm-24.6-70.73a7.7,7.7,0,0,0-7.688,7.688V63.019A7.677,7.677,0,0,0,18.7,68.8L43.3,90.33A7.689,7.689,0,1,0,53.428,78.758L31.975,59.986a1.532,1.532,0,0,1-.526-1.156V32.263A7.7,7.7,0,0,0,23.761,24.575Z" transform="translate(-12.998 -21.5)" fill="#212a41"/></g><g transform="translate(46.996 77.068)"><path d="M42.186,82.17a1.532,1.532,0,0,1-1.012-.381l-24.6-21.527A4.611,4.611,0,0,1,15,56.79V26.038a1.538,1.538,0,0,1,3.075,0V56.793a1.532,1.532,0,0,0,.526,1.156L43.2,79.476a1.536,1.536,0,0,1-1.015,2.694Z" transform="translate(-14.998 -24.5)" fill="#b7c0d7"/></g><g transform="translate(68.929 81.409)"><path d="M44.027,44.951H25.575A3.076,3.076,0,0,1,22.5,41.876v-12.3A3.076,3.076,0,0,1,25.575,26.5H44.027A3.076,3.076,0,0,1,47.1,29.575v12.3A3.076,3.076,0,0,1,44.027,44.951Z" transform="translate(-20.962 -24.962)" fill="#f9ac2f"/><path d="M45.064,47.527H26.613A4.618,4.618,0,0,1,22,42.914v-12.3A4.618,4.618,0,0,1,26.613,26H45.064a4.618,4.618,0,0,1,4.613,4.613v12.3A4.618,4.618,0,0,1,45.064,47.527ZM26.613,29.075a1.538,1.538,0,0,0-1.538,1.538v12.3a1.538,1.538,0,0,0,1.538,1.538H45.064A1.538,1.538,0,0,0,46.6,42.914v-12.3a1.538,1.538,0,0,0-1.538-1.538Z" transform="translate(-22 -26)" fill="#212a41"/></g><g transform="translate(70.33 26.139)"><path d="M24.038,20.8A1.538,1.538,0,0,1,22.5,19.263V10.038a1.538,1.538,0,1,1,3.075,0v9.226A1.538,1.538,0,0,1,24.038,20.8Z" transform="translate(-22.5 -8.5)" fill="#1e97c6"/></g><g transform="translate(101.588 26.139)"><path d="M34.038,20.8A1.538,1.538,0,0,1,32.5,19.263V10.038a1.538,1.538,0,1,1,3.075,0v9.226A1.538,1.538,0,0,1,34.038,20.8Z" transform="translate(-32.5 -8.5)" fill="#005b8a"/></g></svg>