<svg xmlns="http://www.w3.org/2000/svg" width="355.105" height="336.734" viewBox="0 0 355.105 336.734">
  <g id="UFO_Crash" transform="translate(0 -1.5)">
    <g id="Group_771" data-name="Group 771" transform="translate(282.089 248.912)">
      <path id="Path_716" data-name="Path 716" d="M108.512,59.644a2.339,2.339,0,0,1-.392-.028L53.475,51.811a2.76,2.76,0,1,1,.773-5.465l54.645,7.806a2.76,2.76,0,0,1-.381,5.493Z" transform="translate(-51.101 -46.319)" fill="#212a41"/>
    </g>
    <g id="Group_772" data-name="Group 772" transform="translate(258.671 272.338)">
      <path id="Path_717" data-name="Path 717" d="M80.843,87.307a2.772,2.772,0,0,1-1.954-.806L47.666,55.273a2.76,2.76,0,0,1,3.9-3.9L82.791,82.6a2.757,2.757,0,0,1-1.949,4.709Z" transform="translate(-46.859 -50.563)" fill="#212a41"/>
    </g>
    <g id="Group_773" data-name="Group 773" transform="translate(139.436 153.056)">
      <path id="Path_718" data-name="Path 718" d="M201.314,57.6,53.9,205.019a13.8,13.8,0,0,1-21.4-2.352l-.259-.4a41.409,41.409,0,0,1,5.653-51.5L147.056,41.593a41.4,41.4,0,0,1,51.5-5.653l.4.259A13.8,13.8,0,0,1,201.314,57.6Z" transform="translate(-22.984 -26.642)" fill="#b7c0d7"/>
      <path id="Path_719" data-name="Path 719" d="M46.439,214.133a15.758,15.758,0,0,1-1.833-.1,16.49,16.49,0,0,1-12.161-7.568c-11.46-18-8.981-40.6,5.774-55.34L147.382,41.957a43.911,43.911,0,0,1,54.937-6.028,16.728,16.728,0,0,1,7.971,12.421,16.468,16.468,0,0,1-4.747,13.514L58.126,209.281A16.469,16.469,0,0,1,46.439,214.133ZM178.445,34.527a38.3,38.3,0,0,0-27.16,11.328L42.117,155.022a38.412,38.412,0,0,0-5.277,48.07,11.259,11.259,0,0,0,8.369,5.454,11.076,11.076,0,0,0,9.015-3.169L201.641,57.96a11.034,11.034,0,0,0-1.882-17.118A39.617,39.617,0,0,0,178.445,34.527Z" transform="translate(-25.259 -28.955)" fill="#212a41"/>
    </g>
    <g id="Group_774" data-name="Group 774" transform="translate(268.553 164.115)">
      <path id="Path_720" data-name="Path 720" d="M51.41,45.421a2.757,2.757,0,0,1-1.954-4.709,32.935,32.935,0,0,1,41.2-4.527,2.759,2.759,0,0,1-2.964,4.654,27.444,27.444,0,0,0-34.336,3.77A2.733,2.733,0,0,1,51.41,45.421Z" transform="translate(-48.649 -30.958)" fill="#99a2b9"/>
    </g>
    <g id="Group_775" data-name="Group 775" transform="translate(180.646 194.324)">
      <path id="Path_721" data-name="Path 721" d="M33.226,158.215c29.561,5.189,63.83-5.669,89.72-31.565s36.748-60.16,31.565-89.72Z" transform="translate(-30.457 -34.172)" fill="#d32e5e"/>
      <path id="Path_722" data-name="Path 722" d="M50.061,164.481A87.643,87.643,0,0,1,35.008,163.2a2.761,2.761,0,0,1-1.474-4.67L154.819,37.24a2.761,2.761,0,0,1,4.67,1.474c5.515,31.394-6.873,66.7-32.321,92.149C105.722,152.309,77.271,164.481,50.061,164.481Zm-8.705-5.973c28.258,2.981,59.171-8.81,81.909-31.554S157.8,73.3,154.813,45.051Z" transform="translate(-32.724 -36.43)" fill="#212a41"/>
    </g>
    <g id="Group_776" data-name="Group 776" transform="translate(135.126 148.795)">
      <path id="Path_723" data-name="Path 723" d="M153.435,42.388A82.815,82.815,0,0,0,38.686,157.137Z" transform="translate(-22.259 -25.963)" fill="#0079a8"/>
      <path id="Path_724" data-name="Path 724" d="M40.905,162.116c-.094,0-.182-.006-.276-.011a2.765,2.765,0,0,1-2.026-1.22,85.58,85.58,0,0,1,118.58-118.58,2.765,2.765,0,0,1,1.22,2.026,2.721,2.721,0,0,1-.795,2.225L42.859,161.3A2.748,2.748,0,0,1,40.905,162.116Zm69.2-128.423A80,80,0,0,0,41.4,154.968L151.26,45.1A79.524,79.524,0,0,0,110.107,33.694Z" transform="translate(-24.478 -28.183)" fill="#212a41"/>
    </g>
    <g id="Group_777" data-name="Group 777" transform="translate(146.08 180.796)">
      <path id="Path_725" data-name="Path 725" d="M34.651,117.58a2.772,2.772,0,0,1-2.556-1.711A74.4,74.4,0,0,1,48.319,34.787a2.76,2.76,0,0,1,3.9,3.9A68.882,68.882,0,0,0,37.2,113.771a2.768,2.768,0,0,1-1.5,3.6A2.7,2.7,0,0,1,34.651,117.58Z" transform="translate(-26.463 -33.98)" fill="#1e97c6"/>
    </g>
    <g id="Group_778" data-name="Group 778" transform="translate(323.878 243.869)">
      <circle id="Ellipse_46" data-name="Ellipse 46" cx="11.04" cy="11.04" r="11.04" transform="translate(0 15.613) rotate(-45)" fill="#a2a2a1"/>
      <path id="Path_726" data-name="Path 726" d="M72.8,73.321a13.79,13.79,0,1,1,9.754-4.03A13.762,13.762,0,0,1,72.8,73.321Zm0-22.07a8.275,8.275,0,1,0,5.851,2.418A8.262,8.262,0,0,0,72.8,51.251Z" transform="translate(-57.181 -43.918)" fill="#212a41"/>
    </g>
    <g id="Group_779" data-name="Group 779" transform="translate(0 305.113)">
      <path id="Path_727" data-name="Path 727" d="M295.833,57H14.3A13.8,13.8,0,0,0,.5,70.8h0A13.8,13.8,0,0,0,14.3,84.6H295.833a13.8,13.8,0,0,0,13.8-13.8h0A13.8,13.8,0,0,0,295.833,57Z" transform="translate(2.26 -54.24)" fill="#4e4b51"/>
      <path id="Path_728" data-name="Path 728" d="M298.093,89.621H16.561a16.561,16.561,0,0,1,0-33.121H298.093a16.561,16.561,0,0,1,0,33.121ZM16.561,62.02a11.04,11.04,0,1,0,0,22.081H298.093a11.04,11.04,0,0,0,0-22.081Z" transform="translate(0 -56.5)" fill="#212a41"/>
    </g>
    <g id="Group_780" data-name="Group 780" transform="translate(38.642 305.113)">
      <path id="Path_729" data-name="Path 729" d="M302.833,57H21.3A13.8,13.8,0,0,0,7.5,70.8h0A13.8,13.8,0,0,0,21.3,84.6H302.833a13.8,13.8,0,0,0,13.8-13.8h0A13.8,13.8,0,0,0,302.833,57Z" transform="translate(-4.74 -54.24)" fill="#6c696f"/>
      <path id="Path_730" data-name="Path 730" d="M305.093,89.621H23.561a16.561,16.561,0,0,1,0-33.121H305.093a16.561,16.561,0,1,1,0,33.121ZM23.561,62.02a11.04,11.04,0,0,0,0,22.081H305.093a11.04,11.04,0,0,0,0-22.081Z" transform="translate(-7 -56.5)" fill="#212a41"/>
    </g>
    <g id="Group_781" data-name="Group 781" transform="translate(99.364 1.5)">
      <path id="Path_731" data-name="Path 731" d="M67.95,18.561a16.561,16.561,0,1,0-33.121,0H29.54A11.037,11.037,0,0,0,18.5,29.6h0a11.037,11.037,0,0,0,11.04,11.04H73.7A11.037,11.037,0,0,0,84.743,29.6h0A11.037,11.037,0,0,0,73.7,18.561Z" transform="translate(-15.74 0.76)" fill="#99a2b9"/>
      <path id="Path_732" data-name="Path 732" d="M75.962,45.662H31.8a13.8,13.8,0,0,1,0-27.6h2.721a19.327,19.327,0,0,1,38.255,0h3.185a13.8,13.8,0,1,1,0,27.6ZM31.8,23.581a8.28,8.28,0,0,0,0,16.561H75.962a8.28,8.28,0,1,0,0-16.561H70.21a2.761,2.761,0,0,1-2.76-2.76,13.8,13.8,0,1,0-27.6,0,2.761,2.761,0,0,1-2.76,2.76Zm41.17-2.76h0Z" transform="translate(-18 -1.5)" fill="#212a41"/>
    </g>
    <g id="Group_782" data-name="Group 782" transform="translate(115.925 1.5)">
      <path id="Path_733" data-name="Path 733" d="M70.95,18.561a16.561,16.561,0,0,0-33.121,0H32.54A11.037,11.037,0,0,0,21.5,29.6h0a11.037,11.037,0,0,0,11.04,11.04H76.7A11.037,11.037,0,0,0,87.743,29.6h0A11.037,11.037,0,0,0,76.7,18.561Z" transform="translate(-18.74 0.76)" fill="#b7c0d7"/>
      <path id="Path_734" data-name="Path 734" d="M78.962,45.662H34.8a13.8,13.8,0,1,1,0-27.6h2.721a19.327,19.327,0,0,1,38.255,0h3.185a13.8,13.8,0,1,1,0,27.6ZM34.8,23.581a8.28,8.28,0,1,0,0,16.561H78.962a8.28,8.28,0,1,0,0-16.561H73.21a2.761,2.761,0,0,1-2.76-2.76,13.8,13.8,0,0,0-27.6,0,2.761,2.761,0,0,1-2.76,2.76Zm41.17-2.76h0Z" transform="translate(-21 -1.5)" fill="#212a41"/>
    </g>
    <g id="Group_783" data-name="Group 783" transform="translate(269.824 1.501)">
      <path id="Path_735" data-name="Path 735" d="M59.077,9.607A32.981,32.981,0,0,1,70.99,2a33.079,33.079,0,0,0,42.539,42.544A33.112,33.112,0,1,1,59.077,9.607Z" transform="translate(-46.618 0.759)" fill="#f9ac2f"/>
      <path id="Path_736" data-name="Path 736" d="M84.761,71.17A35.88,35.88,0,0,1,59.39,9.918h0A35.539,35.539,0,0,1,72.29,1.67a2.757,2.757,0,0,1,3.544,3.544,30.318,30.318,0,0,0,38.995,38.995,2.757,2.757,0,0,1,3.544,3.544A35.787,35.787,0,0,1,84.761,71.17ZM69.006,9.343a29.8,29.8,0,0,0-5.713,4.477h0a30.363,30.363,0,1,0,47.419,37.217A35.816,35.816,0,0,1,69.006,9.343Zm-7.662,2.523h0Z" transform="translate(-48.879 -1.5)" fill="#212a41"/>
    </g>
    <g id="Group_784" data-name="Group 784" transform="translate(40.712 277.219)">
      <path id="Path_737" data-name="Path 737" d="M10.135,84.568a2.761,2.761,0,0,1-2.76-2.76v-27.6a2.76,2.76,0,0,1,5.52,0v27.6A2.761,2.761,0,0,1,10.135,84.568Z" transform="translate(-7.375 -51.447)" fill="#1a237e"/>
    </g>
    <g id="Group_785" data-name="Group 785" transform="translate(51.752 277.219)">
      <path id="Path_738" data-name="Path 738" d="M12.135,84.568a2.761,2.761,0,0,1-2.76-2.76v-27.6a2.76,2.76,0,0,1,5.52,0v27.6A2.761,2.761,0,0,1,12.135,84.568Z" transform="translate(-9.375 -51.447)" fill="#1a237e"/>
    </g>
    <g id="Group_786" data-name="Group 786" transform="translate(2.067 150.335)">
      <path id="Path_739" data-name="Path 739" d="M63.375,111.751H82.889L57.209,73.109h16.61L45.037,28.947,16.254,73.109h16.61L7.185,111.751H26.7L.875,155.912H89.2Z" transform="translate(1.888 -26.268)" fill="#bed38e"/>
      <path id="Path_740" data-name="Path 740" d="M91.461,160.866H3.137a2.759,2.759,0,0,1-2.385-4.151L24.147,116.7H9.447a2.762,2.762,0,0,1-2.3-4.289L29.982,78.062H18.517A2.759,2.759,0,0,1,16.209,73.8L44.992,29.633a2.869,2.869,0,0,1,4.626,0L78.4,73.8a2.759,2.759,0,0,1-2.307,4.267H64.633l22.832,34.352a2.762,2.762,0,0,1-2.3,4.289H70.462l23.395,40.011a2.752,2.752,0,0,1,.011,2.766A2.8,2.8,0,0,1,91.461,160.866Zm-83.516-5.52H86.653L63.258,115.335a2.759,2.759,0,0,1,2.385-4.151H80.007L57.175,76.831a2.762,2.762,0,0,1,2.3-4.289H70.987L47.3,36.2,23.612,72.542H35.127a2.762,2.762,0,0,1,2.3,4.289L14.592,111.184H28.961a2.759,2.759,0,0,1,2.385,4.151Z" transform="translate(-0.374 -28.462)" fill="#212a41"/>
    </g>
    <g id="Group_787" data-name="Group 787" transform="translate(21.312 170.473)">
      <path id="Path_741" data-name="Path 741" d="M6.622,133.336a2.76,2.76,0,0,1-2.385-4.151l16.108-27.551a2.762,2.762,0,0,1,4.769,2.788L9.007,131.972A2.772,2.772,0,0,1,6.622,133.336Zm7.623-44.112a2.756,2.756,0,0,1-2.3-4.284L26.269,63.4a2.757,2.757,0,1,1,4.593,3.053L16.542,87.993A2.763,2.763,0,0,1,14.246,89.224ZM22.78,51.068A2.76,2.76,0,0,1,20.467,46.8l8.761-13.442a2.761,2.761,0,0,1,4.626,3.014L25.093,49.815A2.759,2.759,0,0,1,22.78,51.068Z" transform="translate(-3.861 -32.11)" fill="#dcf1ac"/>
    </g>
    <g id="Group_788" data-name="Group 788" transform="translate(22.081 86.832)">
      <path id="Path_742" data-name="Path 742" d="M119.925,99.762h-41.4a22.081,22.081,0,0,1,0-44.162H100.6a16.561,16.561,0,0,0,0-33.121H6.76a2.76,2.76,0,1,1,0-5.52H100.6a22.081,22.081,0,0,1,0,44.162H78.523a16.561,16.561,0,1,0,0,33.121h41.4a2.76,2.76,0,0,1,0,5.52Z" transform="translate(-4 -16.958)" fill="#212a41"/>
    </g>
    <g id="Group_789" data-name="Group 789" transform="translate(0 86.832)">
      <path id="Path_743" data-name="Path 743" d="M13.8,22.478H2.76a2.76,2.76,0,1,1,0-5.52H13.8a2.76,2.76,0,1,1,0,5.52Z" transform="translate(0 -16.958)" fill="#212a41"/>
    </g>
    <g id="Group_790" data-name="Group 790" transform="translate(23.027 19.008)">
      <circle id="Ellipse_47" data-name="Ellipse 47" cx="11.04" cy="11.04" r="11.04" transform="translate(0 15.613) rotate(-45)" fill="#a2a2a1"/>
      <path id="Path_744" data-name="Path 744" d="M18.3,32.588a13.79,13.79,0,1,1,9.754-4.03A13.761,13.761,0,0,1,18.3,32.588Zm0-22.07a8.275,8.275,0,1,0,5.851,2.418A8.262,8.262,0,0,0,18.3,10.518Z" transform="translate(-2.682 -3.18)" fill="#212a41"/>
    </g>
    <g id="Group_791" data-name="Group 791" transform="translate(216.233 63.171)">
      <circle id="Ellipse_48" data-name="Ellipse 48" cx="11.04" cy="11.04" r="11.04" transform="translate(0 15.613) rotate(-45)" fill="#a2a2a1"/>
      <path id="Path_745" data-name="Path 745" d="M53.3,40.588a13.79,13.79,0,1,1,9.754-4.03A13.762,13.762,0,0,1,53.3,40.588Zm0-22.07a8.275,8.275,0,1,0,5.851,2.418A8.262,8.262,0,0,0,53.3,18.518Z" transform="translate(-37.681 -11.181)" fill="#212a41"/>
    </g>
  </g>
</svg>
