<svg xmlns="http://www.w3.org/2000/svg" width="61.224" height="61.44" viewBox="0 0 61.224 61.44">
  <g id="Person" transform="translate(-182.959 -234.276)">
    <path id="Path_437" data-name="Path 437" d="M85.806,78.246c0,11.5-5.927,20.826-13.246,20.826S59.314,89.748,59.314,78.246a13.246,13.246,0,0,1,26.492,0Z" transform="translate(141.016 170.776)" fill="#fadf7e" stroke="#335c5f" stroke-linecap="round" stroke-linejoin="round" stroke-miterlimit="10" stroke-width="3"/>
    <path id="Path_458" data-name="Path 458" d="M68.049,78.246a13.244,13.244,0,0,1,8.875-12.491,13.21,13.21,0,0,0-17.61,12.492c0,11.5,5.929,20.826,13.239,20.826a9.036,9.036,0,0,0,4.371-1.183C71.761,95.048,68.049,87.34,68.049,78.246Z" transform="translate(141.016 170.776)" fill="#d8c26f"/>
    <path id="Path_461" data-name="Path 461" d="M110.723,99.229A14.558,14.558,0,0,0,96.168,84.672H89.817a15.924,15.924,0,0,1-2.28-5.992,9.027,9.027,0,0,1-11.835.009,15.848,15.848,0,0,1-2.28,5.983H67.058A14.565,14.565,0,0,0,52.5,99.229v.007A75.86,75.86,0,0,0,110.723,99.229Z" transform="translate(131.96 188.954)" fill="#46c6f1" stroke="#335c5f" stroke-linecap="round" stroke-linejoin="round" stroke-miterlimit="10" stroke-width="3"/>
    <path id="Path_469" data-name="Path 469" d="M77.56,84.318a15.966,15.966,0,0,1-2.075-5.638,9.027,9.027,0,0,1-11.835.009,15.977,15.977,0,0,1-2.08,5.633,14.534,14.534,0,0,0,15.989,0Z" transform="translate(144.015 188.954)" fill="#3eaed3"/>
    <path id="Path_470" data-name="Path 470" d="M85.806,78.246c0,11.5-5.927,20.826-13.246,20.826S59.314,89.748,59.314,78.246a13.246,13.246,0,0,1,26.492,0Z" transform="translate(141.016 170.776)" fill="none" stroke="#335c5f" stroke-linecap="round" stroke-linejoin="round" stroke-miterlimit="10" stroke-width="3"/>
    <path id="Path_475" data-name="Path 475" d="M110.723,99.229A14.558,14.558,0,0,0,96.168,84.672H89.817a15.924,15.924,0,0,1-2.28-5.992,9.027,9.027,0,0,1-11.835.009,15.848,15.848,0,0,1-2.28,5.983H67.058A14.565,14.565,0,0,0,52.5,99.229v.007A75.86,75.86,0,0,0,110.723,99.229Z" transform="translate(131.96 188.954)" fill="none" stroke="#335c5f" stroke-linecap="round" stroke-linejoin="round" stroke-miterlimit="10" stroke-width="3"/>
  </g>
</svg>
