<svg xmlns="http://www.w3.org/2000/svg" width="447.808" height="319.847" viewBox="0 0 447.808 319.847">
  <g id="Space_Shuttle_Launch" transform="translate(0 319.847) rotate(-90)">
    <g id="Group_621" data-name="Group 621" transform="translate(85.291 28.43)">
      <path id="Path_514" data-name="Path 514" d="M99.506,0H0V326.095a106.619,106.619,0,0,0,34.9,78.887l2.9,2.637a17.764,17.764,0,0,0,23.9,0l2.9-2.637a106.619,106.619,0,0,0,34.9-78.887V0Z" transform="translate(3.554 3.554)" fill="#f9ac2f"/>
      <path id="Path_515" data-name="Path 515" d="M103.06,0H3.554A3.555,3.555,0,0,0,0,3.554V329.649a110.4,110.4,0,0,0,36.064,81.517l2.9,2.637a21.236,21.236,0,0,0,28.686,0l2.893-2.637a110.382,110.382,0,0,0,36.071-81.517V3.554A3.555,3.555,0,0,0,103.06,0ZM7.108,7.108h92.4V329.649a103.273,103.273,0,0,1-33.732,76.257l-2.9,2.637a14.141,14.141,0,0,1-19.119,0L40.847,405.9a103.227,103.227,0,0,1-33.74-76.25Z" fill="#212a41"/>
    </g>
    <g id="Group_622" data-name="Group 622" transform="translate(85.291 353.096)">
      <path id="Path_516" data-name="Path 516" d="M103.06,0H3.554A3.555,3.555,0,0,0,0,3.554V4.982A110.4,110.4,0,0,0,36.064,86.5l2.9,2.637a21.226,21.226,0,0,0,28.679,0l2.9-2.637h0A110.382,110.382,0,0,0,106.613,4.982V3.554A3.551,3.551,0,0,0,103.06,0ZM7.129,7.108H99.485A103.305,103.305,0,0,1,65.773,81.239l-2.9,2.637a14.158,14.158,0,0,1-19.126,0l-2.9-2.637A103.285,103.285,0,0,1,7.129,7.108Z" transform="translate(0 0)" fill="#212a41"/>
    </g>
    <g id="Group_623" data-name="Group 623" transform="translate(100.403 367.312)">
      <path id="Path_517" data-name="Path 517" d="M3.56,0a2.929,2.929,0,0,0-.5.036A3.556,3.556,0,0,0,.034,4.044a96.217,96.217,0,0,0,30.477,57.72l2.907,2.644a3.558,3.558,0,0,0,4.776-5.274L35.288,56.5A89.126,89.126,0,0,1,7.071,3.056,3.548,3.548,0,0,0,3.56,0Z" transform="translate(0 0)" fill="#ffca4d"/>
    </g>
    <g id="Group_624" data-name="Group 624" transform="translate(184.797 0)">
      <path id="Path_518" data-name="Path 518" d="M10.128,318.952l2.054,3.419a10.658,10.658,0,0,0,18.281,0l2.054-3.419a71.115,71.115,0,0,0,10.128-36.568V7.108A7.11,7.11,0,0,0,35.538,0H7.108A7.11,7.11,0,0,0,0,7.108V282.383A71.1,71.1,0,0,0,10.128,318.952Z" transform="translate(3.554 3.554)" fill="#b7c0d7"/>
      <path id="Path_519" data-name="Path 519" d="M39.092,0H10.661A10.674,10.674,0,0,0,0,10.661V285.937a74.683,74.683,0,0,0,10.633,38.4h0l2.054,3.419a14.212,14.212,0,0,0,24.379-.007l2.054-3.412a74.614,74.614,0,0,0,10.633-38.4V10.661A10.674,10.674,0,0,0,39.092,0ZM16.731,320.679a67.51,67.51,0,0,1-9.624-34.742V10.661a3.56,3.56,0,0,1,3.554-3.554h28.43a3.56,3.56,0,0,1,3.554,3.554V285.937a67.509,67.509,0,0,1-9.624,34.742l-2.054,3.412c-2.594,4.328-9.6,4.321-12.189.007Z" transform="translate(0 0)" fill="#212a41"/>
    </g>
    <g id="Group_625" data-name="Group 625" transform="translate(184.797 239.745)">
      <path id="Path_520" data-name="Path 520" d="M46.2,0H3.554A3.555,3.555,0,0,0,0,3.554V46.2a3.555,3.555,0,0,0,3.554,3.554H46.2A3.555,3.555,0,0,0,49.753,46.2V3.554A3.551,3.551,0,0,0,46.2,0ZM7.108,7.108H42.645V42.645H7.108Z" fill="#212a41"/>
    </g>
    <g id="Group_626" data-name="Group 626" transform="translate(206.119 28.43)">
      <path id="Path_521" data-name="Path 521" d="M106.613,42.645,0,117.275V0H106.613Z" transform="translate(3.554 3.554)" fill="#b7c0d7"/>
      <path id="Path_522" data-name="Path 522" d="M110.167,0H3.554A3.555,3.555,0,0,0,0,3.554V120.829a3.56,3.56,0,0,0,5.6,2.907L112.214,49.106a3.575,3.575,0,0,0,1.514-2.914V3.547A3.564,3.564,0,0,0,110.167,0ZM7.108,7.108h99.506V44.351L7.108,114.005Z" transform="translate(0 0)" fill="#212a41"/>
    </g>
    <g id="Group_627" data-name="Group 627" transform="translate(106.613 28.43)">
      <path id="Path_523" data-name="Path 523" d="M69.555,329.912l-.171.22a24.87,24.87,0,0,1-39.269,0l-.171-.22A142.132,142.132,0,0,1,0,242.638V0H99.506V242.638A142.182,142.182,0,0,1,69.555,329.912Z" transform="translate(3.561 3.554)" fill="#b7c0d7"/>
      <path id="Path_524" data-name="Path 524" d="M103.06,0H3.554A3.555,3.555,0,0,0,0,3.554V246.192a146.4,146.4,0,0,0,30.69,89.456,28.435,28.435,0,0,0,45.055.22l.171-.22a146.4,146.4,0,0,0,30.69-89.456V3.554A3.545,3.545,0,0,0,103.06,0ZM7.108,7.108h92.4V246.192a139.275,139.275,0,0,1-29.191,85.085l-.163.22a21.326,21.326,0,0,1-33.669.007A139.459,139.459,0,0,1,7.115,246.192V7.108Z" transform="translate(0 0)" fill="#212a41"/>
    </g>
    <g id="Group_628" data-name="Group 628" transform="translate(63.968 0)">
      <path id="Path_525" data-name="Path 525" d="M10.128,318.952l2.054,3.419a10.658,10.658,0,0,0,18.281,0l2.054-3.419a71.115,71.115,0,0,0,10.128-36.568V7.108A7.11,7.11,0,0,0,35.538,0H7.108A7.11,7.11,0,0,0,0,7.108V282.383A71.1,71.1,0,0,0,10.128,318.952Z" transform="translate(3.554 3.554)" fill="#99a2b9"/>
      <path id="Path_526" data-name="Path 526" d="M39.092,0H10.661A10.674,10.674,0,0,0,0,10.661V285.937a74.683,74.683,0,0,0,10.633,38.4h0l2.054,3.419a14.212,14.212,0,0,0,24.379-.007l2.054-3.412a74.615,74.615,0,0,0,10.633-38.4V10.661A10.674,10.674,0,0,0,39.092,0ZM16.731,320.679a67.51,67.51,0,0,1-9.624-34.742V10.661a3.56,3.56,0,0,1,3.554-3.554h28.43a3.56,3.56,0,0,1,3.554,3.554V285.937a67.51,67.51,0,0,1-9.624,34.742l-2.054,3.412c-2.594,4.328-9.6,4.321-12.189.007Z" transform="translate(0 0)" fill="#212a41"/>
    </g>
    <g id="Group_629" data-name="Group 629" transform="translate(78.183 14.215)">
      <path id="Path_527" data-name="Path 527" d="M3.554,0A3.555,3.555,0,0,0,0,3.554V271.722A60.559,60.559,0,0,0,7.548,300.97a3.555,3.555,0,0,0,6.219-3.447,53.452,53.452,0,0,1-6.66-25.808V3.554A3.555,3.555,0,0,0,3.554,0Z" fill="#d5def5"/>
    </g>
    <g id="Group_630" data-name="Group 630" transform="translate(206.119 28.43)">
      <rect id="Rectangle_202" data-name="Rectangle 202" width="106.613" height="28.43" transform="translate(3.554 3.554)" fill="#d32e5e"/>
      <path id="Path_528" data-name="Path 528" d="M110.167,0H3.554A3.555,3.555,0,0,0,0,3.554v28.43a3.555,3.555,0,0,0,3.554,3.554H110.167a3.555,3.555,0,0,0,3.554-3.554V3.554A3.555,3.555,0,0,0,110.167,0ZM7.108,7.108h99.506V28.43H7.108Z" fill="#212a41"/>
    </g>
    <g id="Group_631" data-name="Group 631" transform="translate(121.106 329.073)">
      <path id="Path_529" data-name="Path 529" d="M19.176,33.043l-.171-.22A141.62,141.62,0,0,1,0,0H77.629A142.426,142.426,0,0,1,58.623,32.823l-.171.22A24.877,24.877,0,0,1,19.176,33.043Z" transform="translate(0 0)" fill="#d32e5e"/>
    </g>
    <g id="Group_632" data-name="Group 632" transform="translate(191.904 28.43)">
      <path id="Path_530" data-name="Path 530" d="M21.323,60.414H0V0H56.86Z" transform="translate(3.554 3.554)" fill="#b7c0d7"/>
      <path id="Path_531" data-name="Path 531" d="M60.414,0H3.554A3.555,3.555,0,0,0,0,3.554V63.968a3.555,3.555,0,0,0,3.554,3.554H24.876a3.556,3.556,0,0,0,3.063-1.756L63.478,5.352A3.553,3.553,0,0,0,60.414,0ZM7.108,7.108H54.2L22.844,60.414H7.108Z" transform="translate(0)" fill="#212a41"/>
    </g>
    <g id="Group_633" data-name="Group 633" transform="translate(170.581 28.43)">
      <path id="Path_532" data-name="Path 532" d="M21.323,60.414H0V0H56.861Z" transform="translate(3.554 3.554)" fill="#99a2b9"/>
      <path id="Path_533" data-name="Path 533" d="M60.414,0H3.554A3.555,3.555,0,0,0,0,3.554V63.968a3.555,3.555,0,0,0,3.554,3.554H24.876a3.556,3.556,0,0,0,3.063-1.756L63.478,5.352A3.553,3.553,0,0,0,60.414,0ZM7.108,7.108H54.2L22.844,60.414H7.108Z" fill="#212a41"/>
    </g>
    <g id="Group_634" data-name="Group 634" transform="translate(63.968 239.383)">
      <path id="Path_534" data-name="Path 534" d="M46.2,0H3.554A3.555,3.555,0,0,0,0,3.554V46.2a3.555,3.555,0,0,0,3.554,3.554H46.2A3.555,3.555,0,0,0,49.753,46.2V3.554A3.551,3.551,0,0,0,46.2,0ZM7.108,7.108H42.645V42.645H7.108Z" transform="translate(0 0)" fill="#212a41"/>
    </g>
    <g id="Group_635" data-name="Group 635" transform="translate(156.366 282.39)">
      <path id="Path_535" data-name="Path 535" d="M46.626,17.769H0V0H49.284A143.008,143.008,0,0,1,46.626,17.769Z" transform="translate(3.554 3.547)" fill="#0079a8"/>
      <path id="Path_536" data-name="Path 536" d="M52.838,0H3.554A3.555,3.555,0,0,0,0,3.554V21.323a3.555,3.555,0,0,0,3.554,3.554H50.179a3.552,3.552,0,0,0,3.476-2.829,145.884,145.884,0,0,0,2.722-18.21,3.516,3.516,0,0,0-.931-2.694A3.573,3.573,0,0,0,52.838,0ZM7.108,7.108H48.921c-.391,3.376-.931,6.9-1.656,10.661H7.108Z" fill="#212a41"/>
    </g>
    <g id="Group_640" data-name="Group 640" transform="translate(120.829 159.92)">
      <path id="Path_545" data-name="Path 545" d="M3.554,0A3.555,3.555,0,0,0,0,3.554V114.7A132.521,132.521,0,0,0,27.876,195.65a3.555,3.555,0,0,0,5.608-4.371A125.374,125.374,0,0,1,7.108,114.695V3.554A3.555,3.555,0,0,0,3.554,0Z" transform="translate(0 0)" fill="#d5def5"/>
    </g>
    <g id="Group_641" data-name="Group 641" transform="translate(133.046 325.519)">
      <path id="Path_546" data-name="Path 546" d="M3.554,0A3.6,3.6,0,0,0,2.04.334a3.549,3.549,0,0,0-1.7,4.727,132.813,132.813,0,0,0,15.317,24.99,3.555,3.555,0,0,0,5.608-4.371A125.4,125.4,0,0,1,6.766,2.04,3.549,3.549,0,0,0,3.554,0Z" transform="translate(0 0)" fill="#f14c7c"/>
    </g>
    <g id="Group_642" data-name="Group 642" transform="translate(117.553 325.519)">
      <path id="Path_547" data-name="Path 547" d="M81.181,0H3.552A3.553,3.553,0,0,0,.269,4.918a146.108,146.108,0,0,0,19.482,33.64l.171.22a28.427,28.427,0,0,0,44.877,0,146.4,146.4,0,0,0,19.66-33.86A3.553,3.553,0,0,0,81.181,0ZM8.983,7.108H75.758A137.954,137.954,0,0,1,59.375,34.194a21.333,21.333,0,0,1-33.839.22h-.007l-.171-.22A138.27,138.27,0,0,1,8.983,7.108Z" transform="translate(0 0)" fill="#212a41"/>
    </g>
    <g id="Group_643" data-name="Group 643" transform="translate(0 28.43)">
      <path id="Path_548" data-name="Path 548" d="M0,42.645l106.613,74.629h28.43V0H0Z" transform="translate(3.554 3.554)" fill="#99a2b9"/>
      <path id="Path_549" data-name="Path 549" d="M138.6,0H3.554A3.555,3.555,0,0,0,0,3.554V46.2a3.575,3.575,0,0,0,1.514,2.914l106.613,74.629a3.557,3.557,0,0,0,2.04.64H138.6a3.555,3.555,0,0,0,3.554-3.554V3.554A3.555,3.555,0,0,0,138.6,0ZM7.108,7.108H135.044V117.275H111.283L7.108,44.351Z" transform="translate(0 0)" fill="#212a41"/>
    </g>
    <g id="Group_644" data-name="Group 644" transform="translate(28.43 28.43)">
      <path id="Path_550" data-name="Path 550" d="M0,42.645l106.613,74.629V0H0Z" transform="translate(3.554 3.554)" fill="#b7c0d7"/>
      <path id="Path_551" data-name="Path 551" d="M110.167,0H3.554A3.555,3.555,0,0,0,0,3.554V46.2a3.575,3.575,0,0,0,1.514,2.914l106.613,74.629a3.56,3.56,0,0,0,5.6-2.907V3.561A3.567,3.567,0,0,0,110.167,0ZM7.108,7.108h99.506v106.9L7.108,44.351Z" transform="translate(0 0)" fill="#212a41"/>
    </g>
    <g id="Group_645" data-name="Group 645" transform="translate(28.43 28.43)">
      <rect id="Rectangle_203" data-name="Rectangle 203" width="106.613" height="28.43" transform="translate(3.554 3.554)" fill="#d32e5e"/>
      <path id="Path_552" data-name="Path 552" d="M110.167,0H3.554A3.555,3.555,0,0,0,0,3.554v28.43a3.555,3.555,0,0,0,3.554,3.554H110.167a3.555,3.555,0,0,0,3.554-3.554V3.554A3.555,3.555,0,0,0,110.167,0ZM7.108,7.108h99.506V28.43H7.108Z" fill="#212a41"/>
    </g>
    <g id="Group_646" data-name="Group 646" transform="translate(0 28.43)">
      <rect id="Rectangle_204" data-name="Rectangle 204" width="28.43" height="28.43" transform="translate(3.554 3.554)" fill="#b51040"/>
      <path id="Path_553" data-name="Path 553" d="M31.984,0H3.554A3.555,3.555,0,0,0,0,3.554v28.43a3.555,3.555,0,0,0,3.554,3.554h28.43a3.555,3.555,0,0,0,3.554-3.554V3.554A3.555,3.555,0,0,0,31.984,0ZM7.108,7.108H28.43V28.43H7.108Z" fill="#212a41"/>
    </g>
    <g id="Group_647" data-name="Group 647" transform="translate(191.904 103.06)">
      <path id="Path_554" data-name="Path 554" d="M3.554,0A3.555,3.555,0,0,0,0,3.554V168.662a3.554,3.554,0,0,0,7.108,0V3.554A3.555,3.555,0,0,0,3.554,0Z" transform="translate(0 0)" fill="#99a2b9"/>
    </g>
    <g id="Group_648" data-name="Group 648" transform="translate(21.323 273.641)">
      <path id="Path_555" data-name="Path 555" d="M3.554,0A3.555,3.555,0,0,0,0,3.554V74.629a3.554,3.554,0,1,0,7.108,0V3.554A3.555,3.555,0,0,0,3.554,0Z" transform="translate(0 0)" fill="#212a41"/>
    </g>
    <g id="Group_649" data-name="Group 649" transform="translate(21.323 252.318)">
      <path id="Path_556" data-name="Path 556" d="M3.554,0A3.555,3.555,0,0,0,0,3.554v7.108a3.554,3.554,0,1,0,7.108,0V3.554A3.555,3.555,0,0,0,3.554,0Z" transform="translate(0 0)" fill="#212a41"/>
    </g>
    <g id="Group_650" data-name="Group 650" transform="translate(270.087 191.904)">
      <path id="Path_557" data-name="Path 557" d="M3.554,0A3.555,3.555,0,0,0,0,3.554V74.629a3.554,3.554,0,0,0,7.108,0V3.554A3.555,3.555,0,0,0,3.554,0Z" fill="#212a41"/>
    </g>
    <g id="Group_651" data-name="Group 651" transform="translate(270.087 170.581)">
      <path id="Path_558" data-name="Path 558" d="M3.554,0A3.555,3.555,0,0,0,0,3.554v7.108a3.554,3.554,0,0,0,7.108,0V3.554A3.555,3.555,0,0,0,3.554,0Z" transform="translate(0 0)" fill="#212a41"/>
    </g>
  </g>
</svg>
