<svg xmlns="http://www.w3.org/2000/svg" width="696.359" height="536.826" viewBox="0 0 696.359 536.826">
  <g id="Space_Shuttle" transform="translate(0 207.5)">
    <g id="Group_652" data-name="Group 652" transform="translate(256.616 274.336)">
      <path id="Path_559" data-name="Path 559" d="M164.7,83.6H48.61a6.112,6.112,0,0,1-6.11-6.11V50h97.759l30.55,15.275v12.22A6.108,6.108,0,0,1,164.7,83.6Z" transform="translate(-39.445 -46.945)" fill="#b7c0d7"/>
      <path id="Path_560" data-name="Path 560" d="M167.253,89.214H51.165A9.176,9.176,0,0,1,42,80.05V52.555A3.056,3.056,0,0,1,45.055,49.5h97.759a3.047,3.047,0,0,1,1.369.324L174.732,65.1a3.06,3.06,0,0,1,1.686,2.731V80.05A9.176,9.176,0,0,1,167.253,89.214ZM48.11,55.61V80.05A3.056,3.056,0,0,0,51.165,83.1H167.253a3.056,3.056,0,0,0,3.055-3.055V69.718L142.087,55.61Z" transform="translate(-42 -49.5)" fill="#212a41"/>
    </g>
    <g id="Group_653" data-name="Group 653" transform="translate(287.166 289.611)">
      <path id="Path_561" data-name="Path 561" d="M139.149,70.83H47.5V52.5h97.759V64.72A6.108,6.108,0,0,1,139.149,70.83Z" transform="translate(-44.445 -49.445)" fill="#6c696f"/>
      <path id="Path_562" data-name="Path 562" d="M141.7,76.44H50.055A3.056,3.056,0,0,1,47,73.385V55.055A3.056,3.056,0,0,1,50.055,52h97.759a3.056,3.056,0,0,1,3.055,3.055v12.22A9.176,9.176,0,0,1,141.7,76.44ZM53.11,70.33H141.7a3.056,3.056,0,0,0,3.055-3.055V58.11H53.11Z" transform="translate(-47 -52)" fill="#212a41"/>
    </g>
    <g id="Group_654" data-name="Group 654" transform="translate(256.616 274.337)">
      <path id="Path_563" data-name="Path 563" d="M73.05,83.6V65.275L42.5,50V77.495a6.112,6.112,0,0,0,6.11,6.11Z" transform="translate(-39.445 -46.946)" fill="#4e4b51"/>
      <path id="Path_564" data-name="Path 564" d="M75.6,89.214H51.165A9.176,9.176,0,0,1,42,80.049V52.554a3.053,3.053,0,0,1,4.417-2.731L76.967,65.1a3.054,3.054,0,0,1,1.692,2.731v18.33A3.056,3.056,0,0,1,75.6,89.214ZM48.11,57.5V80.049A3.056,3.056,0,0,0,51.165,83.1H72.55V69.717Z" transform="translate(-42 -49.5)" fill="#212a41"/>
    </g>
    <g id="Group_655" data-name="Group 655" transform="translate(109.98 216.292)">
      <path id="Path_565" data-name="Path 565" d="M134.417,40.5H18.5L30.72,77.159v70.264H210.962a15.273,15.273,0,0,0,15.275-15.275V105.729a30.554,30.554,0,0,0-13.6-25.417L168.315,50.765A61.151,61.151,0,0,0,134.417,40.5Z" transform="translate(-15.447 -37.445)" fill="#b7c0d7"/>
      <path id="Path_566" data-name="Path 566" d="M213.516,153.033H33.273a3.056,3.056,0,0,1-3.055-3.055V80.209L18.157,44.02a3.046,3.046,0,0,1,2.9-4.02H136.971a63.922,63.922,0,0,1,35.584,10.778l44.321,29.548a33.531,33.531,0,0,1,14.969,27.959V134.7A18.352,18.352,0,0,1,213.516,153.033Zm-177.188-6.11H213.516a12.232,12.232,0,0,0,12.22-12.22V108.284a27.43,27.43,0,0,0-12.244-22.876L169.17,55.861a57.861,57.861,0,0,0-32.2-9.751H25.288L36.163,78.749a2.889,2.889,0,0,1,.165.965Z" transform="translate(-18 -40)" fill="#212a41"/>
    </g>
    <g id="Group_656" data-name="Group 656" transform="translate(77.883 161.303)">
      <path id="Path_567" data-name="Path 567" d="M26.946,31.5H19.357a6.107,6.107,0,0,0-5.963,7.436l10.57,47.553H69.789L31.9,34.036A6.106,6.106,0,0,0,26.946,31.5Z" transform="translate(-10.198 -28.445)" fill="#b7c0d7"/>
      <path id="Path_568" data-name="Path 568" d="M72.337,92.1H26.513a3.058,3.058,0,0,1-2.982-2.4L12.967,42.151A9.168,9.168,0,0,1,21.906,31h7.589a9.179,9.179,0,0,1,7.43,3.8L74.812,87.254A3.054,3.054,0,0,1,72.337,92.1Zm-43.38-6.11h37.4L31.969,38.381a3.054,3.054,0,0,0-2.475-1.271H21.906a3.054,3.054,0,0,0-2.982,3.721Z" transform="translate(-12.747 -31)" fill="#212a41"/>
    </g>
    <g id="Group_657" data-name="Group 657" transform="translate(59.553 161.303)">
      <path id="Path_569" data-name="Path 569" d="M23.946,31.5H16.357a6.107,6.107,0,0,0-5.963,7.436l10.57,47.553H66.789L28.9,34.036A6.106,6.106,0,0,0,23.946,31.5Z" transform="translate(-7.198 -28.445)" fill="#99a2b9"/>
      <path id="Path_570" data-name="Path 570" d="M69.337,92.1H23.513a3.058,3.058,0,0,1-2.982-2.4L9.967,42.151A9.168,9.168,0,0,1,18.906,31h7.589a9.179,9.179,0,0,1,7.43,3.8L71.812,87.254A3.054,3.054,0,0,1,69.337,92.1Zm-43.38-6.11h37.4L28.969,38.381a3.054,3.054,0,0,0-2.475-1.271H18.906a3.054,3.054,0,0,0-2.982,3.721Z" transform="translate(-9.747 -31)" fill="#212a41"/>
    </g>
    <g id="Group_658" data-name="Group 658" transform="translate(48.879 216.292)">
      <path id="Path_571" data-name="Path 571" d="M124.417,40.5H23.775A15.273,15.273,0,0,0,8.5,55.775v9.916a15.259,15.259,0,0,0,3.348,9.544L20.72,86.324v45.824a15.273,15.273,0,0,0,15.275,15.275H200.962a15.273,15.273,0,0,0,15.275-15.275V105.729a30.554,30.554,0,0,0-13.6-25.417L158.315,50.765A61.151,61.151,0,0,0,124.417,40.5Z" transform="translate(-5.445 -37.445)" fill="#99a2b9"/>
      <path id="Path_572" data-name="Path 572" d="M203.517,153.033H38.55A18.352,18.352,0,0,1,20.22,134.7V89.949L12.014,79.7A18.386,18.386,0,0,1,8,68.246V58.33A18.352,18.352,0,0,1,26.33,40H126.972a63.922,63.922,0,0,1,35.584,10.778l44.321,29.548a33.531,33.531,0,0,1,14.969,27.959V134.7A18.352,18.352,0,0,1,203.517,153.033ZM26.33,46.11A12.232,12.232,0,0,0,14.11,58.33v9.916a12.31,12.31,0,0,0,2.676,7.637l8.872,11.083a3.064,3.064,0,0,1,.672,1.912V134.7a12.232,12.232,0,0,0,12.22,12.22H203.517a12.232,12.232,0,0,0,12.22-12.22V108.284a27.43,27.43,0,0,0-12.244-22.876L159.171,55.861a57.862,57.862,0,0,0-32.2-9.751Z" transform="translate(-8 -40)" fill="#212a41"/>
    </g>
    <g id="Group_659" data-name="Group 659" transform="translate(61.099 231.567)">
      <path id="Path_573" data-name="Path 573" d="M25.275,79.159A3.056,3.056,0,0,1,22.22,76.1a9.2,9.2,0,0,0-2.01-5.725L11.338,59.29A6.155,6.155,0,0,1,10,55.471V45.555a3.055,3.055,0,1,1,6.11,0v9.916l8.872,11.089A15.357,15.357,0,0,1,28.33,76.1,3.056,3.056,0,0,1,25.275,79.159Z" transform="translate(-10 -42.5)" fill="#b7c0d7"/>
    </g>
    <g id="Group_660" data-name="Group 660" transform="translate(210.795 234.622)">
      <path id="Path_574" data-name="Path 574" d="M67.218,64.982a30.554,30.554,0,0,1,8.8,9.067h61.1a30.411,30.411,0,0,0-8.8-9.067L96.1,43.5H35Z" transform="translate(-31.948 -40.445)" fill="#0079a8"/>
      <path id="Path_575" data-name="Path 575" d="M139.668,79.659h-61.1a3.042,3.042,0,0,1-2.578-1.417,27.287,27.287,0,0,0-7.912-8.163L35.86,48.6A3.055,3.055,0,0,1,37.553,43h61.1a3.03,3.03,0,0,1,1.692.513L132.562,65a33.36,33.36,0,0,1,9.678,9.971,3.055,3.055,0,0,1-2.572,4.692ZM80.2,73.55h53.175a26.509,26.509,0,0,0-4.2-3.47L97.723,49.11H47.64L71.463,65h0A33.029,33.029,0,0,1,80.2,73.55Z" transform="translate(-34.5 -43)" fill="#212a41"/>
    </g>
    <g id="Group_661" data-name="Group 661" transform="translate(177.181 234.622)">
      <path id="Path_576" data-name="Path 576" d="M95.322,64.982,63.1,43.5H44.775a15.275,15.275,0,1,0,0,30.55h59.352A30.65,30.65,0,0,0,95.322,64.982Z" transform="translate(-26.439 -40.445)" fill="#005b8a"/>
      <path id="Path_577" data-name="Path 577" d="M106.68,79.659H47.329a18.33,18.33,0,1,1,0-36.659h18.33a3.03,3.03,0,0,1,1.692.513L99.575,65h0a33.36,33.36,0,0,1,9.678,9.971,3.055,3.055,0,0,1-2.572,4.692ZM47.329,49.11a12.22,12.22,0,1,0,0,24.44h53.058a26.51,26.51,0,0,0-4.2-3.47L64.736,49.11Z" transform="translate(-28.999 -43)" fill="#212a41"/>
    </g>
    <g id="Group_662" data-name="Group 662" transform="translate(595.545 -207.5)">
      <circle id="Ellipse_34" data-name="Ellipse 34" cx="39.714" cy="39.714" r="39.714" transform="translate(3.055 3.055)" fill="#f9ac2f"/>
      <path id="Path_578" data-name="Path 578" d="M86.394,91.039a42.769,42.769,0,1,1,42.769-42.769A42.816,42.816,0,0,1,86.394,91.039Zm0-79.429a36.659,36.659,0,1,0,36.659,36.659A36.7,36.7,0,0,0,86.394,11.61Z" transform="translate(-43.625 -5.5)" fill="#212a41"/>
    </g>
    <g id="Group_663" data-name="Group 663" transform="translate(607.765 -195.28)">
      <path id="Path_579" data-name="Path 579" d="M48.68,41.1a3.056,3.056,0,0,1-3.055-3.055A30.584,30.584,0,0,1,76.175,7.5a3.055,3.055,0,0,1,0,6.11,24.464,24.464,0,0,0-24.44,24.44A3.056,3.056,0,0,1,48.68,41.1Z" transform="translate(-45.625 -7.5)" fill="#ffca4d"/>
    </g>
    <g id="Group_664" data-name="Group 664" transform="translate(635.259 -167.786)">
      <path id="Path_580" data-name="Path 580" d="M53.18,45.6a3.055,3.055,0,1,1,0-6.11,24.464,24.464,0,0,0,24.44-24.44,3.055,3.055,0,0,1,6.11,0A30.588,30.588,0,0,1,53.18,45.6Z" transform="translate(-50.125 -12)" fill="#db8e11"/>
    </g>
    <g id="Group_665" data-name="Group 665" transform="translate(580.27 -173.895)">
      <path id="Path_581" data-name="Path 581" d="M145.494,23.72H47.735a6.112,6.112,0,0,1-6.11-6.11h0a6.112,6.112,0,0,1,6.11-6.11h97.759a6.112,6.112,0,0,1,6.11,6.11h0A6.108,6.108,0,0,1,145.494,23.72Z" transform="translate(-38.57 -8.445)" fill="#a2a2a1"/>
      <path id="Path_582" data-name="Path 582" d="M148.048,29.33H50.29a9.165,9.165,0,1,1,0-18.33h97.759a9.165,9.165,0,1,1,0,18.33ZM50.29,17.11a3.055,3.055,0,1,0,0,6.11h97.759a3.055,3.055,0,1,0,0-6.11Z" transform="translate(-41.125 -11)" fill="#212a41"/>
    </g>
    <g id="Group_666" data-name="Group 666" transform="translate(303.204 127.698)">
      <circle id="Ellipse_35" data-name="Ellipse 35" cx="9.165" cy="9.165" r="9.165" transform="translate(3.055 3.055)" fill="#a2a2a1"/>
      <path id="Path_583" data-name="Path 583" d="M61.845,49.94a12.22,12.22,0,1,1,12.22-12.22A12.232,12.232,0,0,1,61.845,49.94Zm0-18.33a6.11,6.11,0,1,0,6.11,6.11A6.12,6.12,0,0,0,61.845,31.61Z" transform="translate(-49.625 -25.5)" fill="#212a41"/>
    </g>
    <g id="Group_667" data-name="Group 667" transform="translate(179.479 54.379)">
      <circle id="Ellipse_36" data-name="Ellipse 36" cx="12.22" cy="12.22" r="12.22" transform="translate(3.055 3.055)" fill="#a2a2a1"/>
      <path id="Path_584" data-name="Path 584" d="M44.65,44.05A15.275,15.275,0,1,1,59.925,28.775,15.3,15.3,0,0,1,44.65,44.05Zm0-24.44a9.165,9.165,0,1,0,9.165,9.165A9.176,9.176,0,0,0,44.65,19.61Z" transform="translate(-29.375 -13.5)" fill="#212a41"/>
    </g>
    <g id="Group_668" data-name="Group 668" transform="translate(54.225 91.039)">
      <path id="Path_585" data-name="Path 585" d="M97.469,25.61H11.93a3.055,3.055,0,0,1,0-6.11H97.469a3.055,3.055,0,1,1,0,6.11Z" transform="translate(-8.875 -19.5)" fill="#212a41"/>
    </g>
    <g id="Group_669" data-name="Group 669" transform="translate(23.676 91.039)">
      <path id="Path_586" data-name="Path 586" d="M19.15,25.61H6.93a3.055,3.055,0,0,1,0-6.11H19.15a3.055,3.055,0,1,1,0,6.11Z" transform="translate(-3.875 -19.5)" fill="#212a41"/>
    </g>
    <g id="Group_670" data-name="Group 670" transform="translate(241.342 265.171)">
      <path id="Path_587" data-name="Path 587" d="M50.466,48.5a30.465,30.465,0,0,1,4.808,16.35V91.269A15.273,15.273,0,0,1,40,106.544h61.1a15.273,15.273,0,0,0,15.275-15.275V64.85a30.465,30.465,0,0,0-4.808-16.35Z" transform="translate(-36.945 -45.445)" fill="#6c696f"/>
      <path id="Path_588" data-name="Path 588" d="M103.654,112.154h-61.1a3.055,3.055,0,0,1,0-6.11,12.232,12.232,0,0,0,12.22-12.22V67.405a27.417,27.417,0,0,0-4.332-14.713A3.055,3.055,0,0,1,53.021,48h61.1a3.042,3.042,0,0,1,2.578,1.417,33.523,33.523,0,0,1,5.285,17.988V93.824A18.352,18.352,0,0,1,103.654,112.154Zm-47.45-6.11h47.45a12.232,12.232,0,0,0,12.22-12.22V67.405a27.328,27.328,0,0,0-3.489-13.3H58.092a33.285,33.285,0,0,1,2.792,13.3V93.824A18.281,18.281,0,0,1,56.2,106.044Z" transform="translate(-39.5 -48)" fill="#212a41"/>
    </g>
    <g id="Group_671" data-name="Group 671" transform="translate(305.496 281.521)">
      <path id="Path_589" data-name="Path 589" d="M53.055,83.205A3.056,3.056,0,0,1,50,80.15V53.731a3.055,3.055,0,1,1,6.11,0V80.15A3.056,3.056,0,0,1,53.055,83.205Z" transform="translate(-50 -50.676)" fill="#4e4b51"/>
    </g>
    <g id="Group_672" data-name="Group 672" transform="translate(268.836 281.521)">
      <path id="Path_590" data-name="Path 590" d="M47.055,83.205A3.056,3.056,0,0,1,44,80.15V53.731a3.055,3.055,0,1,1,6.11,0V80.15A3.056,3.056,0,0,1,47.055,83.205Z" transform="translate(-44 -50.676)" fill="#8a878d"/>
    </g>
    <g id="Group_673" data-name="Group 673" transform="translate(61.099 298.776)">
      <path id="Path_591" data-name="Path 591" d="M206.017,63.165V54H10.5v9.165A15.273,15.273,0,0,0,25.775,78.44H190.742A15.276,15.276,0,0,0,206.017,63.165Z" transform="translate(-7.445 -50.945)" fill="#4e4b51"/>
      <path id="Path_592" data-name="Path 592" d="M193.3,84.05H28.33A18.352,18.352,0,0,1,10,65.72V56.555A3.056,3.056,0,0,1,13.055,53.5H208.572a3.056,3.056,0,0,1,3.055,3.055V65.72A18.352,18.352,0,0,1,193.3,84.05ZM16.11,59.61v6.11A12.232,12.232,0,0,0,28.33,77.94H193.3a12.232,12.232,0,0,0,12.22-12.22V59.61Z" transform="translate(-10 -53.5)" fill="#212a41"/>
    </g>
    <g id="Group_674" data-name="Group 674" transform="translate(0 274.336)">
      <path id="Path_593" data-name="Path 593" d="M122.7,83.6H6.61A6.112,6.112,0,0,1,.5,77.495V50H98.259l30.55,15.275v12.22A6.108,6.108,0,0,1,122.7,83.6Z" transform="translate(2.555 -46.945)" fill="#b7c0d7"/>
      <path id="Path_594" data-name="Path 594" d="M125.253,89.214H9.165A9.172,9.172,0,0,1,0,80.05V52.555A3.056,3.056,0,0,1,3.055,49.5h97.759a3.047,3.047,0,0,1,1.369.324L132.732,65.1a3.06,3.06,0,0,1,1.686,2.731V80.05A9.176,9.176,0,0,1,125.253,89.214ZM6.11,55.61V80.05A3.056,3.056,0,0,0,9.165,83.1H125.253a3.056,3.056,0,0,0,3.055-3.055V69.718L100.087,55.61Z" transform="translate(0 -49.5)" fill="#212a41"/>
    </g>
    <g id="Group_675" data-name="Group 675" transform="translate(30.55 289.611)">
      <path id="Path_595" data-name="Path 595" d="M97.149,70.83H5.5V52.5h97.759V64.72A6.108,6.108,0,0,1,97.149,70.83Z" transform="translate(-2.445 -49.445)" fill="#6c696f"/>
      <path id="Path_596" data-name="Path 596" d="M99.7,76.44H8.055A3.052,3.052,0,0,1,5,73.385V55.055A3.052,3.052,0,0,1,8.055,52h97.759a3.056,3.056,0,0,1,3.055,3.055v12.22A9.176,9.176,0,0,1,99.7,76.44ZM11.11,70.33H99.7a3.056,3.056,0,0,0,3.055-3.055V58.11H11.11Z" transform="translate(-5 -52)" fill="#212a41"/>
    </g>
    <g id="Group_676" data-name="Group 676" transform="translate(0 274.337)">
      <path id="Path_597" data-name="Path 597" d="M31.05,65.275.5,50V77.495A6.112,6.112,0,0,0,6.61,83.6H31.05Z" transform="translate(2.555 -46.946)" fill="#4e4b51"/>
      <path id="Path_598" data-name="Path 598" d="M33.6,89.214H9.165A9.172,9.172,0,0,1,0,80.049V52.554a3.053,3.053,0,0,1,4.417-2.731L34.967,65.1a3.054,3.054,0,0,1,1.692,2.731v18.33A3.056,3.056,0,0,1,33.6,89.214ZM6.11,57.5V80.049A3.056,3.056,0,0,0,9.165,83.1H30.55V69.717Z" transform="translate(0 -49.5)" fill="#212a41"/>
    </g>
    <g id="Group_677" data-name="Group 677" transform="translate(134.412 234.622)">
      <path id="Path_599" data-name="Path 599" d="M49.494,91.879H31.164A9.176,9.176,0,0,1,22,82.714V52.165A9.176,9.176,0,0,1,31.164,43h18.33a9.176,9.176,0,0,1,9.165,9.165v30.55A9.176,9.176,0,0,1,49.494,91.879ZM31.164,49.11a3.056,3.056,0,0,0-3.055,3.055v30.55a3.056,3.056,0,0,0,3.055,3.055h18.33a3.056,3.056,0,0,0,3.055-3.055V52.165a3.056,3.056,0,0,0-3.055-3.055Z" transform="translate(-21.999 -43)" fill="#212a41"/>
    </g>
  </g>
</svg>
